<svg id="Ebene_1" data-name="Ebene 1" xmlns="http://www.w3.org/2000/svg" viewBox="0 0 800 800"><defs><style>.cls-1{fill:#f2c01b;}.cls-2{fill:#4a0f10;}</style></defs><polygon class="cls-1" points="691.88 647.13 695.93 583.15 695.93 483.55 626.54 452.96 650.94 379.11 631.62 205.21 117.63 518.27 113.06 551.64 113.06 627.45 118.2 662.07 127.56 667.7 183.5 661.19 218.91 655.63 246.23 655.63 333.29 701.5 400 763.56 486.97 701.5 516.4 701.5 569.75 630.5 638.57 640.61 691.88 647.13"/><polygon class="cls-2" points="631.62 205.21 626.54 159.5 547.75 110.15 527.81 33.68 253.32 33.68 226.62 110.15 197.43 159.81 138.59 159.81 152.15 359.86 164.3 457.79 131.15 456.38 122.1 485.67 117.63 518.27 631.62 205.21"/><path d="M118.2,662.07,98,671.61c0-6.69-.3-13,0-19.29q1.57-27.86,3.68-55.68c.2-2.66,2.2-5.14,3-7.81.76-2.47,2.3-5.79,1.33-7.52-4.48-8-2.54-16.07-2-24.31.89-13.62,1.31-27.28,1.79-40.93a16.49,16.49,0,0,0-6.41-13.68C94,498,88,494.27,82.3,490.27c-.83-.58-1.74-1.06-3.12-1.89,1.39-.64,2.33-1.14,3.32-1.53,12-4.69,23.92-9.46,36-14,3-1.11,4.17-2.74,3.65-5.77a7.62,7.62,0,0,1,0-1.17c0-8.69.1-8.89,9-9.55,7-.51,13.93-.88,21.94-1.38-6.74-5.85-2.07-10,.95-14.35l3.13-4.54c-6.43-5.25-12.68-10.7-19.32-15.62-3.15-2.33-4-4.47-2.62-8.11,1.36-3.46,2.12-7.16,3.16-10.79-5,1.91-9.56,4.38-14.45,5.43-20.41,4.37-37.33-10.25-36.72-31.35C87.7,359.32,97,349,113.91,346.35a105.15,105.15,0,0,1,12.43-1c4-.16,8,0,12.47,0-.77-5.92-1.74-12.14-2.36-18.4-3.37-34.56-7-69.09-9.84-103.69-1.31-15.67-.88-31.47-1.72-47.19a40.49,40.49,0,0,1,7.5-25.68c3.36-4.92,7.07-9.59,10-13.49,6.3,2.34,11.67,5.59,17.33,6.2,16.45,1.79,28.42-6.67,37.58-19.34,6.93-9.58,9.59-20.94,11.28-32.48,2.88-19.67,1.55-39.19-2.55-58.54-.56-2.65.25-3.76,2.24-4.94,10.1-6,21.22-9.15,32.5-11.75,28.61-6.56,57.74-9.23,87-11a1010.6,1010.6,0,0,1,104.58-.8C470.5,6,508.66,8.42,546.14,16.75c5.93,1.32,11.66,3.56,17.5,5.31,2.39.72,2.93,2.16,3,4.63.28,16.37.43,32.77,1.37,49.12a78.13,78.13,0,0,0,7.46,28.9c7.3,15.51,19.66,23.51,36.58,24.27,5.67.25,11.41-.52,17.08-1.15,2.24-.25,3.49.16,4.73,2.13,8.11,12.88,16.4,25.64,24.51,38.52a11.79,11.79,0,0,1,1.71,5.41c2.09,35.78,1.41,71.54-.65,107.29-1,16.63-2.17,33.24-3.24,49.85-.1,1.54,0,3.09,0,5,3-.3,5.92-.69,8.83-.85,17.06-.91,30.56,7.12,35.9,21.27,5.89,15.63-.33,35.18-13.7,43-10.66,6.27-22,5.06-31.27-3.31-.46-.42-.94-.82-1.48-1.3-3.21,5.87-2.65,11.25,1.31,16.27,2.2,2.78,1.74,4.77-1,7.11-4.11,3.58-7.66,7.79-11.72,11.44-2.15,1.93-2.5,3.69-1.08,6a1.4,1.4,0,0,1,.13.36c1.52,3.74,3.16,7.42,4.51,11.21,1.61,4.48-3.86,6.39-3.9,10.05l78.09,22.15c-4.8,8.36-10.56,14.44-16.55,20.38-1.8,1.79-3.63,4.34-3.92,6.72-1.69,13.92-3.37,27.87-4.19,41.86-.68,11.54-.15,23.16-.23,34.74,0,1.37,0,3.21-.83,4-2.61,2.57-2.24,5.39-2,8.61,1.83,20.85,3.47,41.72,5.14,62.58.1,1.26,0,2.54,0,4.12L659,656.82c-12.09-1.74-24.18-3.46-36.26-5.26-1.37-.2-3.11-.47-3.92-1.38-6.61-7.53-15.26-9.58-24.77-10-6.32-.29-12.61-1.3-19.37-2,2,4.74.49,8.21-2.15,11.59C555.44,671.6,538,693.1,517.42,711.86c-4.7,4.29-9.7,8.25-14.94,12.68-1.91-3.24-3.51-6.14-5.29-8.92-4.74-7.37-6-7.91-12.33-2.17-15.27,13.94-30.28,28.17-45.19,42.49-13.87,13.33-27.48,26.94-41.55,40.76C392.9,792.16,388,788.32,383.6,784,365.66,766.2,348,748.21,330,730.45c-5.71-5.64-11.89-10.81-18.07-16.38L295.34,728.9c-1.14-1-2.2-1.95-3.18-2.93C271,704.75,250.61,682.9,231.78,659.6a7.12,7.12,0,0,0-4.81-2.3c-10.41-.21-20.83-.12-31.24-.09a7.74,7.74,0,0,0-3.43.42c-9.6,5.21-20.17,5.91-30.68,6.32-11,.43-21.38,2.24-31.19,7.37-4.8,2.52-5,2.24-7.77-2.4q-1.81-3-3.66-6C118.86,662.72,118.65,662.56,118.2,662.07ZM293.68,123.89c8-14,21.34-19,34.73-24.52l-4.16-1.89c2.08-5.76,6-9.22,11.77-9.8a123.89,123.89,0,0,1,15.54-.25c3.25.07,6.5.65,10.61,1.1-4.66-5.61-10.33-7.09-16.85-8.13,6.39-5,13.11-5.59,20-4s13.38,4.19,20.14,6c4.25,1.15,8.66,1.7,14,2.71C397.92,81.94,397,80,396.07,78c13.5-1.7,27.16,9.08,28.71,23.13H398.12l4.49,6.57c-7.66,4.27-15.94,3.18-23.81,4.24l-.51,1.24,10.41,6.23a14.71,14.71,0,0,1-5.37,2c-7.8,1.75-15.33,4.2-21.7,9.25-10.85,8.58-10.47,23.39,1.18,30.91,3.73,2.42,8.53,3.18,13.11,4.8v5.13l13.79-2.62c-3.85,4.51-6.52,8.51-6.17,13.75l12.64-2.77c-.77,3-1.38,5.06-1.88,7.19-1.83,7.72-.33,14.82,4.72,20.88a53.65,53.65,0,0,0,21,15.75c7,2.85,13.88,2.54,20.52-1.62a14.82,14.82,0,0,1,7.08-2.17c8.16-.26,16.33-.1,24.92-.1,1-9.77,2.06-19.17,3-28.58a15.27,15.27,0,0,0-.33-3.24c-.55-.21-.79-.4-1-.38-7.24.65-14.47,1.29-21.69,2a6,6,0,0,0-2.34,1.23c-4.08,2.76-6.23,2.75-10.32-.09-9.45-6.55-11.22-15.53-5.27-26.68,4.21-7.9,6.93-9.27,15.63-7.89.9.14,1.84.12,2.71.34,8.46,2.18,18.08-.24,25.14,6.48,2.14-2.91,4.6-5.41,6-8.4a70.9,70.9,0,0,0,4.18-12.29c.76-2.9-.55-4.36-3.85-4.68-4.16-.4-8.44-1.19-11.64-5l12.73-7.91c-3.51-1.21-6.23-2.58-9.1-3.08-9.61-1.67-17.78-6.11-25.55-11.84-3.89-2.88-8.81-4.31-12.95-6.9-3-1.85-6.41-4-7.9-7a44.67,44.67,0,0,0-23.55-21.79c-5.58-2.27-7.31-5.37-6.74-11,.45-4.44.09-9,.09-13.26,12,0,23.82-.39,35.63.08,26,1,51.75,4.87,77.34,9.64,2.8.52,3.84,1.6,4.24,4.37,1.44,10,2.73,20.1,4.88,30,4,18.31,10,35.93,22.47,50.41,4.68,5.42,10.46,9.9,15.77,14.85-3,3.71-6.58,7.69-9.76,11.94-7.72,10.29-11.95,21.51-8.95,34.66a22.79,22.79,0,0,1,0,7.73c-1.29,10.12-6.62,18.65-11.94,26.86-9.47,14.62-19.89,28.63-29.79,43-.8,1.16-1.35,3.29-.83,4.43a123.46,123.46,0,0,1,9.78,35.18,4.31,4.31,0,0,0,2.77,2.82c5.71,1.23,11.48,2.28,17.28,3,1.5.19,3.86-.52,4.66-1.65,3.42-4.86,7-9.77,9.43-15.14,6.28-13.69,8.95-28.45,11.74-43.15,4.23-22.23-.55-19.45,18.43-36.26a29,29,0,0,0,9.29-17.17c1.25-7,2.75-14,4.3-21,1.46-6.54,3.12-13,4.59-19.1l17.61,6.18a810.86,810.86,0,0,1-7,156.76c-2,0-3.57.09-5.12,0-10.38-.69-20.77-1.34-31.15-2.13-38.16-2.92-75.92-8.73-113.49-15.85-10-1.89-21.52-13.61-23-23.21,1.32,1.55,2.49,2.93,3.67,4.3,7.77,9,17.35,14.69,29.3,16.28,8.37,1.11,16.7,2.52,25,3.88,5.46.89,10.91,1.93,16.42,2.91.6-17-16.87-48.29-29.27-52.74.18.95.41,1.83.49,2.72s0,2,0,3.3c-17.61-.93-33.16-5.93-45.67-18.89-.29,1.32-.49,2.28-.74,3.42-11.22-2.27-19.36-9.16-27.13-16.68l-1,.94c3.14,4,6.28,8,9.62,12.24-13.56-4.07-22.66-12.26-26.48-25.88L378,235.46c-.77-5.5-1.5-10.75-2.24-16l-1.31-.33c-2.69,4.54-5.62,9-8,13.64-5.39,10.52-9.88,21.56-15.93,31.67-5.39,9-9.29,18.24-10.77,28.56-1.06,7.29-2.07,14.59-3.13,22.09L333,313.71c.64,6.31,3.75,11,6.86,15.82a23.45,23.45,0,0,1,3.8,8.67c1.27,8.22,1.49,16.6,2.86,24.79,3.51,21-1.31,39.64-14.07,56.57a213.47,213.47,0,0,0-12.66,19.65c-1.74,2.92-2.63,6.34-3.79,9.25,6.9,4.86,13.5,5.89,20.76,2.58a21.42,21.42,0,0,1,8-1.6c24.71-.91,49.42-1.66,74.13-2.49,11-.36,22-.79,33.2-1.2a23.37,23.37,0,0,0,.83-4.48c-.05-4.28,1.85-7,5.34-9.61,10.69-7.91,20.71-16.62,29-27.13,6.6-8.37,11.8-17.4,13.12-28.28.33-2.68-.41-3.94-3-4.18-9.94-.9-19.95-2.95-29.81-2.41-12.24.66-24.38,3.47-36.56,5.33a12.91,12.91,0,0,1-1.87,0v-3.44l-14.93,3.28,2.28-6.34c-7.87,4-15.23,7.82-22.58,11.61-.24-.36-.48-.71-.71-1.07l5.15-15.48C386.11,369,381,379.85,373.46,388.92c-3.33-13.73,1.83-25.39,7.41-38.05l-17.38,8.22c1.26-11.28,11.45-27.15,19.79-31.35-4.2,7.12-8.28,14-12.71,21.52L386,343.94c-1,12.3-7.63,22-10.36,34.09,8-8.89,14.73-17.69,27.09-20.2-1.12,5.53-2.14,10.58-3.28,16.23,9.84-5,16.21-15,28.64-16L421,369.88l20.34-7.83-6.59,7.35a8.71,8.71,0,0,0,1.42.29c.64-.07,1.28-.18,1.92-.31,17.73-3.5,35.56-4.95,53.51-2,6.4,1.06,12.67,3.29,19.09,3.76,11.4.84,22.86.82,34.3,1,14.16.25,27.64,2.56,39.52,11.09a35.36,35.36,0,0,0,10.24,4.66c8.35,2.53,13.47-1.12,14.23-9.79.12-1.38,0-2.78,0-4.16l1.2-.05c.22,4.37.43,8.75.65,13.43,5.11.59,10.47.53,13.55-4.29,4.75-7.46.67-14.18-3.07-20.8l3.31.34c-.12-8.81-5.41-14.13-11.67-18.57-2.52-1.78-3.24-3.49-3-6.38,1.46-15,2.9-30,4.07-45.08,2.89-37.31,3.39-74.6-1.58-111.82-.39-2.91-1.51-3.89-4-4.64-5.57-1.65-11-3.64-16.81-5.57.82-1.74,1.71-2.86,1.83-4.06.18-1.77.4-4.06-.52-5.23-.64-.81-3.28-.41-4.87,0a26.69,26.69,0,0,0-4.86,2.39c1.1-1.56,2.61-2.37,3.85-3.48a20.51,20.51,0,0,0,2.47-3.31,21.94,21.94,0,0,0-3.33-2.33c-5.39-2.5-10.86-1.91-16.24,0-3,1.08-5.36.48-8-1.32-12.49-8.7-20.64-20.74-26.77-34.34-8.2-18.21-12.07-37.56-14.74-57.18-.38-2.8-1.39-3.86-4-4.61A337.24,337.24,0,0,0,399.8,45.79c-1.37.1-2.73.4-4.42.66V70.93L385.61,77l-17.53-5.13,14.15-26.29c-44.71-.29-88.41,2.09-131.73,12.47.88,1.64,1.46,2.79,2.11,3.9,8.05,13.83,16.05,27.68,24.21,41.44a6.1,6.1,0,0,1,.35,6.48c-6.28,13.27-12.42,26.62-18.61,40-2.38,5.12-4.78,10.24-7.41,15.89l-13-16.24c-10.06,17.29-23.36,30.26-40.75,39,7.65,12,14.92,23.52,22.4,35,1.66,2.54,1.93,4.56.58,7.41-5,10.56-9.63,21.28-14.48,32.12,15.31,10.32,29.9,21.13,42,35.4l11.85-18.49c8.5,14.75,16.79,29,24.89,43.4.59,1.05.18,3-.36,4.31-4.13,9.83-8.12,19.74-12.75,29.33-3.65,7.57-1.35,15.21-2.21,23.35H343.6a163,163,0,0,0-3.13-39.3l-23.58,29.82C309.35,356.1,302.08,342,295,327.87a5.35,5.35,0,0,1,.34-3.95c2.8-6.15,5.77-12.22,8.7-18.32,3.9-8.12,7.83-16.23,11.89-24.65l4.17,6.48V249.59c-4.4,6.87-4.87,14.93-6.93,22.73a31.51,31.51,0,0,1-3.82-8.41c-2.35-9.74,1-18.52,5.37-26.93,2.83-5.48,6.26-10.64,9.93-16.81-12.29,8.16-19.14,19.49-25.41,31.76-4.53-6.43-5.43-13.06-3.87-20.82-5.43,4.15-9.95,8.13-16.14,8.84l-.89-.91,35.15-37.92-.6-1c-3.3,2.08-6.93,3.8-9.82,6.35-3.59,3.16-6.44,7.13-9.83,10.54-4.66,4.67-9.14,9.67-14.41,13.57-6.27,4.62-13.77,3.79-20.1-1.17,10.15-3.78,17.18-11.08,23.22-19.54,7.08-9.92,13.47-20.42,23.3-28.18-10.44,3-19.46,8.62-29.05,15.31,3.76-11.56,9.84-20.43,17.43-28.39l-.54-1-13.19,3.68,16.23-30L289.66,140c5.45-4.92,11.48-8.72,14.2-16.06ZM607.74,486.17a21.81,21.81,0,0,1-2.12-2.88c-1.81-3.68-4.75-5.41-8.78-6-8.33-1.31-16.58-3.25-24.93-4.38-26.49-3.55-53.16-4.43-79.83-4-41.24.6-82.47,1.76-123.71,2.38-6,.09-11.27.79-15.4,5.52a12.79,12.79,0,0,1-2.49,1.77,18.62,18.62,0,0,1-2.09-2.67c-1.92-3.72-4.85-4.73-9-4.42-12.7.94-25.51.93-38.13,2.48-8.25,1-17.84-.92-23.42,7.14-3.95-1.74-7.44-4.25-11.18-4.7-5.74-.68-11.66.09-17.5.14-2.32,0-2.94,1.11-3.28,3.29-1.15,7.31-1.31,15.15-4.25,21.71-3.36,7.51-2.43,14.36-2.08,22,1,21.82.87,43.7,1.11,65.56.1,8.54,0,17.09,0,25.46a13.75,13.75,0,0,0,1.75.29c22.88-2.45,45.76-5,68.65-7.32,4.14-.42,7.82-1.19,11-4.16.82-.75,3.18-.13,4.72.26,2,.5,3.93,2,5.9,2.05,17.17.12,34.36.37,51.52-.15,16.2-.5,32.5-.38,48.37-5,2.93-.85,6.71.75,10,1.68,3.06.87,5.88,3.13,8.93,3.4,11.65,1.05,23.35,1.58,35,2.24,41,2.34,82.08,4.73,123.13,6.9,5.78.31,10.71,2,14.86,5.83a32.3,32.3,0,0,0,17.26,8.22c12.76,2.12,25.41,4.8,38.65,7.36-1.67-17.61-3.3-34.77-4.93-51.93l1.08.45c1.19-1.61,3-3.07,3.43-4.87a55.45,55.45,0,0,0,1.7-11.53c.89-24.12-1.67-48.07-3.95-72a4.47,4.47,0,0,0-2.64-3c-4.69-1.54-9.68-2.24-14.22-4.1-8.23-3.36-15.52-3.07-21.9,3.69-.06.06-.25,0-.88,0-1.64-7.94-7.68-9.48-14.91-10.27C617.48,481.86,612.26,481.76,607.74,486.17ZM127.56,667.7c12.61-5.11,24.78-5.92,37-6.85,8.67-.66,17.61-1,25.32-5.49a14.46,14.46,0,0,1,12.33-1.69c9.69,2.53,19.6,1,29.36-1.07,3.36-.72,4.55-2.05,4.54-5.63q-.22-58.38,0-116.74c0-5.12-.42-9.88-3.85-13.83-2.6-3-1.91-5.48.46-8.14a15.26,15.26,0,0,0,3.89-9.5c1-14.66,2.17-29.31,3.28-44,.32-4.24.62-8.48,1-13.13l-37.22,5.47c-2.35-20.51-4.65-40.58-7-60.8l49.62-5.92c0-12,2.76-23.81-4.1-34.78-2.18-3.49-3.25-7.66-5.15-11.34a9.86,9.86,0,0,1-.32-9.27,7,7,0,0,0-1-8c-7.29-8.82-14.47-17.73-21.75-26.57a3.89,3.89,0,0,0-2.41-1.56c-4.07,0-7.44,5.83-5.45,9.35,4.93,8.71,9.54,17.64,15,26,3.53,5.44,4,10.21,1.65,16.25-4.19,11-7.53,22.28-11.43,34-8.22-9.9-16.06-19.33-23.9-28.75l-.63.33c4,34,8,68,12.07,102.27-11.77,3.28-23,7.15-34.52,9.38-9.64,1.86-19.67,1.54-29.48,2.64-8.11.91-7.48-.74-8.34,8.23-.91,9.44,2,17.67,8.9,25.51-1.21.78-2.22,1.41-3.19,2.06-4.81,3.25-6.79,7.91-7,13.56-.18,4.29-.72,8.56-1,12.84-.67,12.48-1.12,25-2,37.42-.32,4.8-.3,9.25,2.45,13.49.91,1.39,1,3.45,1.09,5.21q1,38.06,1.77,76.1C127.63,658.86,127.56,662.88,127.56,667.7Zm267.61,52.09c-8.93-3.38-42.4-25.88-45.32-30.14h19.59c-.49-4.34-1-8.44-1.47-13,5.15,3.4,4.12,8.46,4.79,13.09,6.44-2.56,7.57-7.76,8-13.77.58,2.42,1.16,4.85,1.81,7.55a8.2,8.2,0,0,0,4.09-7.12c.35-8.07-5.34-14.57-14.46-15.33a146.92,146.92,0,0,0-20.23.15c-2.87.15-4.93-.49-6.08-3a161.86,161.86,0,0,1-6.81-16c-1.38-4.12-1.71-8.59-2.56-13.23l-41,4.57c-.43,5.35-.81,10.1-1.25,15.59-5.24-5-9.91-9.61-14.84-13.95-1.38-1.21-3.55-1.53-5.36-2.26l-.7,1.25c2,2.71,3.6,5.78,6,8.06,9.1,8.69,16.41,18.71,23.28,29.19,5.49,8.37,13.77,12.86,23.82,13.84a27.81,27.81,0,0,1,15.83,6.32C358.8,705.2,377,716.37,396,726.09a7,7,0,0,0,5.3-.05c20.26-8.9,36.33-23,49.76-40.39.68-.88,1.28-2.55.89-3.39-1.36-3-3.17-5.77-5.07-9.07l-22.3,33.57c-.87-1.33-1.53-2.26-2.12-3.25-6.68-11.15-13.28-22.36-20.09-33.45-1.43-2.33-1.51-3.89.17-6.17,5-6.76,9.66-13.75,14.58-20.81l-20.39-17.17C394,657.84,396,688.67,395.17,719.79ZM244.63,457.4c5-1.22,9.38-2.39,13.81-3.31,2.55-.52,3.54-1.57,3.62-4.37.37-13,1-26,1.6-39,1-23,2.62-46,.38-69-1.39-14.16-5.52-26.71-16.17-37.3-15.13-15-31-28.85-49.78-39.15-8-4.38-15.91-3.88-23.08,1.5a70.23,70.23,0,0,0-12.42,11.75c-8.2,10.1-12.46,21.59-9.51,34.83,2.59,11.62,16.14,22.9,26.34,22.45-1.62-5.62-3.56-11.27-4.84-17.06-1.22-5.54.84-8.63,5.41-11.63,7.48-4.92,14.77-10.16,22-15.48,3.3-2.44,6.23-5.39,9.42-8.19,13.39,9.95,30.78,33.46,36.41,49.8.92,2.68,2,5.54,1.93,8.28-.71,27.82-1.52,55.63-2.6,83.43C246.72,435.58,245.52,446.16,244.63,457.4ZM519.21,675.65c1.26-7.33-1.24-12.65-6.33-16.79a40.77,40.77,0,0,0-19.32-8.74c-4.41-.73-8.28-2.48-11-6-3.53-4.49-6.66-9.29-10.19-13.77-1-1.26-2.75-2.63-4.22-2.69-15.44-.73-30.89-1.35-46.35-1.64-4.68-.09-9.39.92-14.77,1.5,1.36,1.44,2.07,2.35,2.93,3.08,5.46,4.61,10.92,9.23,16.44,13.77,11.23,9.25,22.75,18,29.83,31.44,1.81,3.43,6.47,6.66,10.33,7.43a118.46,118.46,0,0,0,24.68,2c8.49-.12,9.92-2.86,7.18-10.81-.07-.2.07-.47.11-.71l.95-.68c1.44,2.19,3.17,4.24,4.24,6.59,1.46,3.22,3.24,3.95,8.21,2.5,3.41-1,4.82-3.2,3.82-6.41a63,63,0,0,0-2.42-5.84l.59-.35ZM505.62,376a19.39,19.39,0,0,0-1,2,115.94,115.94,0,0,1-24.22,40.94,4.52,4.52,0,0,0-.43,3.95c2.26,5.37,5.42,10.44,7.15,16,2.38,7.59,6.83,10.51,14.54,9.05a19.31,19.31,0,0,1,5.83,0c2.64.33,3.91-.84,5.06-3.1,4.84-9.48,9.94-18.82,14.77-28.3a5.13,5.13,0,0,0,.12-4.21C520.37,400.28,513.14,388.42,505.62,376Zm55.3,75.54.16,1.2c2.16-.94,5.28-1.27,6.32-2.91,6-9.44,11.52-19.17,17.07-28.88a5.17,5.17,0,0,0,.44-3.89c-4.69-11.84-9.55-23.62-14.36-35.41-1.4-3.43-4.59-2.29-7.07-2.5a4.54,4.54,0,0,0-3.53,1.94q-9,16-17.51,32.21a6.38,6.38,0,0,0-.22,4.65c3.6,9.61,7.57,19.09,11.11,28.73C554.69,450.37,556.16,453.07,560.92,451.52ZM479.15,628.68c2.1,3.16,3.71,5.36,5.09,7.69,3.66,6.2,8.47,10.33,16.18,10.38,2,0,2.88-.15,3.83-2,2-3.83,4.39-7.44,6.84-11.5,3.09,4.07,5.73,7.54,8.46,11.15l14.55-11.71ZM583,312.63c3.61-6.28,6.94-12,10.18-17.76a3.26,3.26,0,0,0,.45-2.51c-3.23-6.13-6.6-12.18-10.21-18.77-4,6.47-7.64,12.16-11.08,18a3.73,3.73,0,0,0,0,3.15C575.66,300.53,579.18,306.27,583,312.63ZM303.61,396.18c-3.93,6.34-7.61,12.15-11.11,18.06a3.46,3.46,0,0,0,.22,3c3.44,5.18,7,10.24,10.92,15.8,3.6-6,7.05-11.57,10.35-17.26a3.23,3.23,0,0,0-.13-2.76C310.65,407.59,307.3,402.21,303.61,396.18Zm199-192.54c3.77-5.91,7.22-11.25,10.56-16.66.47-.77.87-2.21.48-2.79-3.62-5.31-7.42-10.51-11.47-16.14-3.68,5.66-7.06,10.72-10.25,15.9a3.61,3.61,0,0,0,.1,3.11C495.33,192.47,498.82,197.78,502.59,203.64Zm-283.39,194c-3.79,5.83-7.34,11.24-10.8,16.71a2.86,2.86,0,0,0-.33,2.43c3.62,5.11,7.39,10.12,11.33,15.45,3.62-5.6,6.91-10.57,10-15.64a3.49,3.49,0,0,0,.22-3C226.36,408.28,222.86,403.14,219.2,397.63ZM192,189.6c-5.38.83-9.7,1.57-14,2.15-2.34.31-3.24,1.26-3.12,3.77.49,10.25.76,20.51,1.15,30.76a23.35,23.35,0,0,0,.72,3.16C181.91,215.8,186.77,203.14,192,189.6ZM478.51,66c-3.21,5.94-6.18,11.36-9.07,16.83a2.44,2.44,0,0,0-.12,2.08c3.3,4.36,6.71,8.63,10.35,13.26,3.07-5,5.78-9.22,8.31-13.58a3.68,3.68,0,0,0,.24-3.09C485.19,76.36,482,71.39,478.51,66ZM200.81,300.43c-7.58,2.38-12.84,6.27-17.71,10.77a3.41,3.41,0,0,0-.85,2.09,37.72,37.72,0,0,0,3.36,18.47C190.72,321.23,195.52,311.35,200.81,300.43Zm167.8,327c-.45,3.08-1.93,6.31-1.05,8.67,1.45,3.9,4.42,7.22,6.9,11,.58-1,1-1.71,1.31-2.41,1.44-3.05,3-6.06,4.26-9.17a5.79,5.79,0,0,0-5.44-8.1ZM176.89,239v20l13.22-2.43Z"/><path d="M255,178.19c6.64,10.54,13.19,20.83,19.53,31.26.51.83,0,3.15-.82,3.78-5.1,4-10.37,7.73-15.67,11.44a57.24,57.24,0,0,1-5.75,3.12,23.5,23.5,0,0,0,16.83,10,5.79,5.79,0,0,1,4.12,9.32c-4.73,6.8-9.46,13.6-14.5,20.83-1.74-2.46-3.25-4.5-4.67-6.62-7.11-10.56-14.24-21.11-21.23-31.75-.71-1.08-1.2-3-.72-4.07C239.3,210,246.66,194.48,254,179,254.09,178.79,254.37,178.68,255,178.19Z"/><path d="M293.26,115.35c-2.12-3-4.14-5.62-5.94-8.44a3.49,3.49,0,0,1-.17-2.83q11.22-25.24,22.61-50.43c1.1-2.43,5.1-2.71,6.13-.41,4.42,9.94,8.69,19.95,13.06,30.06-5.3,3.21-8.13,7.82-9.54,13.48A3.65,3.65,0,0,1,317.36,99C307.71,101.89,299.86,107.39,293.26,115.35Z"/><path d="M447.64,123.29c-8.59,9.4-22.53,7.29-26.4-4C427.93,117.56,440.36,119.45,447.64,123.29Z"/><path d="M364.92,147.19c-1.11-4.69.88-8.35,5.64-10.09,5.68-2.06,11.11.74,14.22,7.31-3.36,0-6.78-.35-10.08.1S368.31,146.22,364.92,147.19Z"/><path d="M393.27,575.34l5,3.23c4-3.81,5.5-8.61,5.47-13.73,0-7.66-.55-15.33-1-23-.26-4-.8-8-1.42-11.93-.23-1.48-1.06-2.87-1.8-4.77l-7.37,4.17c-.68-3.26,1.18-5.11,3.59-6.2,5-2.27,6.87-6.41,7.36-11.49.51-5.3.85-10.63,1.52-15.91a9.3,9.3,0,0,1,5.34-7.57c5.43-2.78,10.65-6,15.89-9.13,1.74-1,3-1,4.87,0,3.33,1.77,7.06,2.8,10.87,4.23-.22.87-.6,2.33-1.05,4.1h5.84c4.19,5.69,4.84,10.21,2.65,19,4.4.68,5.22,3.39,3.87,7.27-4.14,12-3.83,24.33-2.59,36.66.75,7.34,2.21,14.62,3.42,22.36L429.47,570a15.51,15.51,0,0,0,2.38-3c1.21-2.79,3-5.68,3.09-8.55.16-10.47-.11-21-.71-31.43-.12-2-2.45-3.91-4-6.22l13.53-10.37q-3.54-3.33-6.61-6.26c-6,4.77-11.82,9.27-17.43,14-.8.67-.68,2.61-.7,4-.16,13.91.05,27.83-.52,41.72A67.33,67.33,0,0,1,415.12,581c-3,9.44-10,12.49-19.35,9a38.89,38.89,0,0,1-4.63-2c-4.51-2.35-4.76-3.71-1.64-7.65C390.79,578.74,392,577,393.27,575.34Zm29.51-87.58c-4,6.25-4.25,13-3.16,20.39a22.28,22.28,0,0,0,13.91-7.23c2.74-3,.89-8.73-2.93-10.07C428.06,490,425.57,488.87,422.78,487.76Z"/><path d="M539,488.65c12.89.59,26-3.29,38.67,2.07v1.45c-2.2.1-4.4.24-6.61.29s-3.28.77-3.52,3.11c-1.1,10.46-3,20.88-3.35,31.35-.43,15.06.25,30.16.62,45.24,0,1.7,1,3.45,1.75,5.05,1.16,2.4,2.55,4.69,3.84,7l-.63.93c-3.75-1.26-7.46-2.67-11.27-3.72a15.69,15.69,0,0,0-6.56-.65c-3.88.69-7.39.7-10.85-1.56a5.06,5.06,0,0,0-3.85-.07c-3.93,1.34-7.75,3-12.42,4.8-1.82-3.73-4.18-7.22-5.31-11.08-3.74-12.81-3.86-25.95-1.55-39a22.91,22.91,0,0,1,12-16.49,14.42,14.42,0,0,1,11.68-1.11c3.47,1.09,8.12-2.16,7.88-5.86a84.41,84.41,0,0,0-1.79-11.9,7.11,7.11,0,0,0-2.34-3.34c-2.11-1.9-4.4-3.59-6.62-5.37Zm7.62,39.82c-7.06-1.18-7.79-.81-10.41,5.22a31.08,31.08,0,0,0-1.28,3.66c-3,10.37-1.47,20.56,1.36,30.65a5.1,5.1,0,0,0,2.61,3c2.12.8,3.1-.76,3.86-2.66C547.91,555.5,548.85,542.25,546.6,528.47Z"/><path d="M348,574.63l1.36,5.93c8,1.35,12.49-2.27,12.34-10.16-.26-13.13-.62-26.26-.95-39.38,0-1-.18-2-.3-3.27H350l-.59-.88c3.13-2.32,6.07-5,9.44-6.86,2.48-1.38,2.94-2.91,3-5.5a151.22,151.22,0,0,1,1.48-17.41c.6-4,3.11-7,7-8.8,3.18-1.47,6.24-3.2,9.35-4.82,7.46-3.88,12.64-2.92,18.78,3.56-2.06,5.28-6.3,8.26-11.4,10.65l-5.69-9.23c-7,6.8-3.1,14.67-4.34,22.78l14.65-4.2c1,7-2.6,10.28-14.51,12.45,0,11,.08,22.18,0,33.32-.07,7.39.22,14.85-.8,22.12-1.07,7.6-6.16,13-12.67,16.93-2.91,1.76-5.85,2-8.77-.07-3.31-2.3-6.5-4.81-10-6.78s-3.28-4-1.08-6.46A54.1,54.1,0,0,1,348,574.63Z"/><path d="M513.56,577.69c-8.26-2-16.46-2.9-25,2.09.58-8.53.45-16.35,1.85-23.88a56.42,56.42,0,0,0,.93-17.32c-.5-4.12-.74-8.27-1.14-12.91a57.12,57.12,0,0,0-5.95,1.8,3.1,3.1,0,0,0-1.65,2.12c-.75,8.68-1.59,17.36-1.9,26-.11,3.27,1,6.59,1.74,9.86.39,1.86,1,3.66,1.52,5.28l-24.18,6.91a7.91,7.91,0,0,1,.62-1.71c6.39-8.27,7.35-17.71,6.49-27.75-.46-5.38.37-10.89-.17-16.26-.2-2.08-2.58-3.93-4.32-6.4l19.27-14c.36,3.32.65,5.92,1,9.17,2.76-1.27,5.13-2.49,7.6-3.45a60.46,60.46,0,0,1,9.9-3.36c4.85-1,7.6,1.44,7.52,6.35-.27,16-.73,32-1,47.94a5.1,5.1,0,0,0,1.57,3.1c1.84,1.92,3.89,3.64,5.86,5.44Z"/><path d="M615.23,552.44c.29,2.89,1.13,6.53.87,10.09s-.83,7.42-2.72,10.16a83.15,83.15,0,0,1-11.69,13c-4.47,4.18-13.5,4.17-19.8,0-10.27-6.75-13.6-13.8-11.57-27,1.16-7.57,1.91-15.21,3-22.79,1-7,5.23-11.5,11.69-13.84,6.92-2.52,13.65-2.18,19.35,3C612.22,532.17,616.85,540.71,615.23,552.44Zm-23-23.53a10.47,10.47,0,0,0-1.47,1.85,28.8,28.8,0,0,0-1.8,4.72c-2.88,11.94-2.34,23.94-.4,35.93a7,7,0,0,0,1.38,3.58c1.26,1.32,2.89,2.72,4.56,3,.8.16,2.47-1.91,3-3.27,4.1-9.49,4.28-19.4,2.59-29.42C599.1,539.26,597.44,533.44,592.21,528.91Z"/><path d="M294.57,518.92c8.17-3.23,16.08-6.35,25.13-9.94-1.42,1.9-2.09,3.61-3.32,4.26-3.13,1.65-3.53,3.76-2.73,7,1.52,6.17,3.77,11.83,8.5,16.46,6.77-3.79,6.9-10.17,6.74-15.83l22-9.45c-1.06,2.16-2,4.34-3.17,6.43-7,13-14.26,25.94-21.11,39-7.36,14.1-17.63,25.29-31.47,33.19a90,90,0,0,0-7.93,5c-1.86,1.32-3.46,1.61-5.22,0-4.26-3.84-8.54-7.68-13.37-12,7.07-1,12.82-1.45,18.44-2.59a75.9,75.9,0,0,0,12.22-3.92c11.39-4.46,14.48-10.41,10.56-22-2.62-7.72-6.29-15.09-9.52-22.61C298.38,527.49,296.37,523,294.57,518.92Z"/><path d="M641.21,520.83v5.91c2.48-1,4.65-2,6.87-2.74,3.17-1.13,6.11-.54,7.9,2.37,2.16,3.51,4.42,7.11,5.67,11,1.73,5.34-3.79,11.57-9.41,10.95a4.9,4.9,0,0,1-3.2-2.69c-.68-1.61-.31-3.63-.81-5.35-.36-1.27-1.16-3-2.17-3.36-1.8-.61-3.95-.39-4.61,2.15s-1.86,5.2-1.84,7.79c.08,9.36.74,18.72.84,28.08,0,4.81,1.6,8.53,5.46,11.41a57.53,57.53,0,0,1,4.61,4.18l-35.28-3.79c-.09.51-.13.17,0,.09,6.36-3.84,8.37-9.63,8.28-16.8-.11-9.1.56-18.21.38-27.3,0-2.5-1.72-5.05-3-7.41-1-1.83-1-3.17.83-4.28q9.18-5.7,18.38-11.35Z"/><path d="M274.73,574.79,250.05,578c0-1.29-.16-1.83,0-2,4.7-4.35,4.82-9.91,4.53-15.75-.36-7.54-.56-15.09-.37-22.63.1-3.78-.74-6.22-4.69-7a20.22,20.22,0,0,1-3.31-1.49l19.38-18.28c.81,1.22,1.39,2,1.92,2.9,3.31,5.27,3.74,5.56,8.76,1.66,2.81-2.18,4.67-2,6.83.42.59.68,1.37,1.19,2,1.82,8.28,8,6.72,15.17-4.27,19.4-2.78-3.88-2.67-10.29-9.76-11.33,0,2.92,0,5.47,0,8,0,9.1,0,18.21-.06,27.31-.05,4.58-.46,9.18,4,12.44Z"/><path d="M224.79,493.52c-8.83,12.86-19.88,21.78-34.08,27.25,7.74-9.23,4.26-17-2.62-24.34-2.39-2.56-4.48-5.42-6.92-7.94-4.33-4.49-10.79-3.09-12.3,3.07-2.69,10.94-5.58,21.95-6.82,33.11-1.69,15.23-1.89,30.62-2.79,45.94a5.56,5.56,0,0,0,2.18,4.91,17.36,17.36,0,0,1,4.07,6.84c1.78,5.14,3,10.49,4.65,15.67,3.6,11.05,10.55,19.58,20.18,26.18,3.8-2,6.07-4.41,5.79-9.31-.46-8.17,0-16.39-.21-24.59a6.22,6.22,0,0,0-1.77-4.32c-2.37-1.85-2.93-4-2.68-6.76.34-3.74.38-7.5.57-11.76l-14.77.71a53.05,53.05,0,0,1,1-6.86,3.4,3.4,0,0,1,2.36-1.82c13.34-2.06,26.69-4,40.67-6.06a30.42,30.42,0,0,1-.81,4,54.47,54.47,0,0,0-2.53,27.21c.91,5.64.72,11.47,1.87,17,.58,2.8,2.86,5.36,4.73,7.75,3.14,4,2.83,7.8-1.67,10.42a15.19,15.19,0,0,1-7,1.91,54.63,54.63,0,0,0-31,10.29A92.4,92.4,0,0,1,172,639.36c-4.75,2.31-6.9,1.51-9.66-3.11A163.86,163.86,0,0,1,139,557.85c-.58-13.43-1.4-27.13,3.42-39.77a155.21,155.21,0,0,1,16.79-32.35c5.81-8.49,16.11-11.93,25.73-15.23,3.2-1.09,6.28,0,9,2.43,6.31,5.82,12.82,11.43,19.24,17.12C217.42,493.81,218.61,494.2,224.79,493.52Z"/></svg>