<svg id="Ebene_1" data-name="Ebene 1" xmlns="http://www.w3.org/2000/svg" viewBox="0 0 800 800"><defs><style>.cls-1{fill:#30883c;}</style></defs><polygon class="cls-1" points="210.11 156.51 318.52 148.04 333.64 140.22 373.75 125.8 404 105.69 413.68 72.86 432.43 60.16 443.56 75.22 469.76 87.69 488.55 124.75 500.76 162.36 526.45 170.97 598.64 170.97 614.94 223.43 630.8 233.83 684.94 249.22 680.59 299.93 712.34 326.67 683.66 381.21 681.96 449.08 660.86 470.35 653.75 501.84 640.21 467.84 639.75 448.48 613.88 458.41 619.8 564.75 601.1 620.24 454.77 750.51 343.91 731.01 210.11 507.24 193.21 420.19 125.97 431.16 117.49 331.46 91.88 315 96.25 270.66 118.36 263.34 125.97 223.43 176.3 216.2 203.06 211 210.11 156.51"/><path d="M571.54,385.47c-8.34-.93-15.8,1.12-23,4-10.94,4.37-21.7,9.22-32.63,13.62-5.95,2.4-12.1,4.33-18.5,6.58,9.39,3.78,18.65,1.46,28.79.31-1.94,1.68-3.3,3-4.78,4.09-1.72,1.3-3.53,2.49-5.34,3.66a32.78,32.78,0,0,0-5,3.56c15.61,4.35,28.89-3.55,42.77-8.23-1.3,3.91-4.72,7.55-11.92,11.87-5,3-10.19,5.53-15.6,8.42,6.79,3.14,13.68,2.59,21.29,1.58-6.39,6.93-15.24,7.11-22.66,10.65.74,3.63,3.29,4.77,6.19,5.56,2.65.73,5.3,1.49,8.37,2.35-6.65,10-17.47,11.59-27.24,15l.17,1,12,1.34c-2.77,8.86-10,13.5-16.49,19.15l6.28,5.62c-7.63,5.89-14.23,12.47-17.84,22.48,6.12,5.25,12.37,11.2,19.23,16.35,29.44,22.14,62.6,35.77,98.72,42.53,7.84,1.47,15.6,3.39,23.36,5.29,3.42.84,3.75,2.12,1.87,5.08-2.12,3.35-6.48,4.76-11.58,3.72a329.36,329.36,0,0,1-96.65-35.79c-15-8.48-29.16-18.46-43.51-28-6.88-4.59-13.61-6.79-20.34-4.81,48.53,38,102,63.09,161.84,74.47-1.6,7.09-10.52,10.33-16.7,8.57s-12-3.94-18-6.07a439.15,439.15,0,0,1-74.59-35.21,15.53,15.53,0,0,0-5.61-2.2c.87,1.21,1.51,2.73,2.65,3.57,5,3.66,9.79,7.87,15.31,10.53,17.71,8.52,35.7,16.46,53.6,24.58,7.84,3.56,15.74,7,23.82,10.6-3.71,2-10,2.09-17.09.4-15-3.55-28.44-10.59-41.7-18.21-12.86-7.38-26-14.22-39.09-21.25a27.81,27.81,0,0,0-3.84-1.38l-.69.93c4.36,3.71,8.49,7.74,13.12,11.07,13.09,9.41,28.15,15,42.72,21.6,7.73,3.48,15.38,7.15,23.65,11-3.81,3.25-7.71,3.59-11.18,2.21-8.92-3.53-17.8-7.3-26.38-11.6-10.2-5.12-20.07-10.9-30.1-16.39-1.29-.71-2.61-1.38-3.92-2.07l-.65.79c2.72,2.49,5.12,5.53,8.23,7.35,8.08,4.74,16.48,8.95,24.75,13.37q8.49,4.54,17,9.12c-.12.38-.23.76-.35,1.15-2.77,0-5.63.44-8.3-.08-10.4-2-19.31-7.54-28.27-12.82s-17.58-10.71-26.54-15.75a11.72,11.72,0,0,0-7.09-1.1c-4.72.74-9,.22-12.43-3.13-7.14-7-15.69-6.14-24.33-4.66-1.06.18-2.29,2-2.66,3.21a126.32,126.32,0,0,0-3.38,13.64c-1.59,8.93-6.61,15.24-14.29,19.63-5.12,2.94-9.48,6.37-10.49,12.73-.13.77-1.43,1.59-2.36,2-2.21.86-4.53,1.45-6.84,2.16.28,5.69,2.15,11.29-1.32,16.68l-7.71-10.65c-5.23,4.46-6.81,9.89-5.69,16.11a22.32,22.32,0,0,0,2.61,7.5c1.77,3,1,5.2-.88,7.55-5.81,7.37-13.7,8.92-22.71,8.42.63-3.83.88-7.41,1.86-10.78s.06-5.27-2.09-7.75c-5.74-6.6-12.94-9.55-21.43-10.06-6.45-.38-9.27,1.39-11.77,7.36-.86,2.06-2,4-3.44,7l-10-11.92-1.4,7.55c-6.32-1.42-8.78-5.74-9.41-17.81l-7.1,8.18c-3.41-4.41-3.62-5.84-3.24-22.14l-7.55,9.3c-3.78-12.61,1.91-24.54,12.78-27.21a23.7,23.7,0,0,1,15.26,1.63c2.09.9,4.13,1.94,6.14,3,8.57,4.65,13.57,3.75,20.13-3.54C367.21,606,371,597,373.21,587.2c2.63-11.63,3-23.45,2.22-35.27a13.26,13.26,0,0,0-3.5-8.09,24.11,24.11,0,0,1-6.88-11.56c-1.26-4.75-3.84-7.56-9.06-8.42-2.41-.4-4.95-2.62-6.56-4.69a80.33,80.33,0,0,1-6.49-10.75c-6.46-11.78-17.15-14.47-29.27-13.07-11.21,1.29-18.18,8.29-22,18.62-1.84,5-1.81,5-6.89,3.54-12.36-3.63-19.49-16.25-16.52-29.57,1.49-6.66,4.11-12.75,9.61-17.33a14,14,0,0,0,3.8-5.61c3.92-10.05,11.85-15.52,21.34-19.35,12.5-5,25.6-7.25,38.92-8.39,6.82-.58,13.66-.85,21.06-1.3-1.6-10.34-3.17-20.44-4.64-29.95l-90.5-7.11c0,7.93,0,16.29,0,24.66,0,6.61-2.78,8.89-9.33,7.7-3.24-.59-6.47-1.25-9.71-1.83a7.45,7.45,0,0,0-1.85.22c0,1.39-.06,2.75,0,4.09,1.13,23.88,1.72,47.8,3.55,71.63,2.71,35.12,7.5,70,20.09,103.17,16.31,43,44.49,76.67,82.92,101.6,13.28,8.61,27.52,15.75,41.38,23.46,10.69,5.95,21.06,5.25,31.83-.62a233.42,233.42,0,0,0,75.66-65.2A316.51,316.51,0,0,0,532,619.41c.51-1,1-2,1.82-3.55,3.51,1.49,7.19,2.55,10.34,4.47,14.49,8.87,29.62,8.52,45.16,3.66,3.61-1.12,7.21-2.28,11.81-3.75-3.75,6.89-6.94,13.13-10.48,19.15C569.68,675,543.14,706,513.11,734.11c-21.76,20.39-45,38.83-70.7,54.15-11.7,7-23.84,12.49-38,11.66A50.1,50.1,0,0,1,381,792.59c-42.1-25.58-81.44-54.73-115.3-90.76-23.94-25.49-44-53.52-56.14-86.72-5.21-14.3-7.88-29.12-9.6-44.16-2-17.41-4.2-34.81-5.79-52.27-1.7-18.74-2.91-37.52-4.12-56.29-.79-12.3-1.2-24.61-1.79-37.2h-10c-2.07,30.68-.6,61.9-13.33,91.05-7.47-29-7.18-58.46-6.57-88.55l-32.79,8.83c-7.75-35.37-6.51-70.3-8.17-105.06-4.85-.37-9.54-.41-14.12-1.14C93.64,328.79,88.2,322.8,86.92,313c-2-15.26-.23-29.7,9.33-42.37a54.14,54.14,0,0,1,19.68-15.93c2.13-1.06,3-2.27,2.89-4.65-.17-4.44.1-8.91-.07-13.35-.33-8.65,3.88-14.78,11.54-17.47a107.59,107.59,0,0,1,24.35-5.53c13.89-1.42,27.9-1.7,41.86-2.48.6,0,1.2-.15,2.12-.27a393.17,393.17,0,0,1-13.34-71.82c49.42,19.21,98.55,12.6,148.36,1.06-1.05,6.84-1.72,13.49-3.15,20-2.1,9.52-4.35,19-7.27,28.34-3.37,10.75-8.38,14.08-19.65,14.31-15.26.31-30.53.52-45.8.77-1.25,0-2.51,0-4.29,0,0,5.37-.14,10.54.12,15.68a4.3,4.3,0,0,0,2.58,2.9c9.33,2.87,11,10.2,10.59,18.4-.16,3.45,1.16,4.49,4.15,5.37,19.5,5.71,39.49,6.77,59.63,6.47a11.19,11.19,0,0,0,1.89-.61c-1-6-1.18-12.32-3.06-18.11-5.69-17.59-3.41-34.51,2.61-51.44C347.37,139,344.73,97,322.8,56.41c-4.95-9.16-9.49-18.52-14.21-27.8-.62-1.22-1.13-2.49-1.85-4.08,8.67-1.27,15.36,2,21.23,7.46,7.76,7.22,13,16.25,17.72,25.56,6.06,12,11.74,24.2,17.66,36.27,1.31,2.67,3,5.18,5,8.58,4.06-24.88-4-47.71-6.07-71.55a35,35,0,0,1,14.5,12.21c7.71,11,11.13,23.49,12.62,36.67.9,7.92,2.21,15.79,3.34,23.68l1.25.26a31.13,31.13,0,0,0,2.41-3.8c4-8.82,4.39-18.19,4-27.64-.25-5.9-.83-11.79-.51-18.07L408,64.32c1-3.83,2.2-7.1,2.64-10.46,1.74-13.26-.26-26.38-1.84-39.5-.39-3.26-.86-6.52-1.29-9.77l1.09-.28c2,7.07,4.31,14.07,5.87,21.23,7.65,34.94,2.24,68.51-12.05,100.73-6.93,15.64-15.63,30.48-23.16,45.86-4.91,10-9.08,20.39-13.7,30.54-6.05,13.31-5.28,26.52-.22,40,2.31,6.1,3.66,12.57,5.63,19.52-35.8,1.56-69.89-5.49-104.64-9-.75,7.33-1.82,14.24-2.09,21.19-.73,19-2,38.15-1.41,57.18.6,18.36,3.27,36.66,5.24,55,.13,1.21,2,3,3.27,3.19,15.78,2.52,31.54,5.46,47.43,7,24.48,2.35,49.08,1.83,73.58,0,22.93-1.69,45.82-4,68.68-6.51,24.5-2.67,48.95-5.84,73.42-8.79,25-3,50.08-5.38,75.32-4.37,10.94.44,21.85,1.61,32,5.9,5.05,2.14,9.71,5.22,15.33,8.3,0-8-.36-16,.06-23.87,1.44-27,8.12-52.82,18.19-77.83,1.94-4.82,4.14-9.55,5.76-14.48,4.13-12.58.14-22.3-11.61-28.32-10.08-5.16-21.06-7-32.16-6.48q-27.61,1.17-55.15,3.7c-18.71,1.7-37.36,4.19-56,6.28-12,1.35-24,2.62-36,3.9-.62.07-1.26,0-2.51,0l20.66-21.2-.75-.85a52.83,52.83,0,0,0-22.14,11.08,43.44,43.44,0,0,0-3.85,3.7c-6.64,7.43-14.82,12-24.79,12.72-9.43.68-18.88.89-28.48.68,17.13-25.5,41.14-42.45,66.69-57.63l-.44-1.13c-6.29,1.95-12.68,3.62-18.85,5.9-18.89,7-33,20.07-45.09,35.75-3.79,4.93-7.89,9.63-12.08,14.23-3.15,3.47-7.2,4.66-12,4.51-9.9-.3-19.8-.09-30.56-.09,1.32-3.54,2.45-6.66,3.64-9.76,2-5.32,4.62-10.49,5.95-16,.76-3.16-.49-6.8-.83-10.22l-1.5-.06-5.15,14.41a26.47,26.47,0,0,1-5.08-15.3c-.42-12.4-.18-24.74,8.06-35.18a46.72,46.72,0,0,1,3.73-4.33c2.65-2.64,5.55-3.58,8.93-.53,2.21-6.92,4.2-13.71,6.56-20.36,4.7-13.25,10.35-26.22,14.27-39.69a246.23,246.23,0,0,0,9.84-79.45,168.7,168.7,0,0,0-6.47-40.14A18.53,18.53,0,0,1,417,0c19.88,20.76,24,47.17,26.57,75.22,1.2-1.8,2-2.83,2.61-3.93,6.37-10.91,9.11-23.05,11.8-35.2,2.33-10.48,4.57-21,6.84-31.46l1.65-.09c1,6.14,2.5,12.25,2.9,18.43,1.28,19.87-5.2,38.06-13.21,55.74-7.69,17-16.1,33.65-23.63,50.7-3.31,7.48-5.56,15.49-7.68,23.43-1.38,5.22-1.12,10.71,2.27,15.37,4.09,5.62,4.43,11.73,2.82,18.17a105.36,105.36,0,0,0-2.55,11.46c4.15-4.23,8.59-8.21,12.38-12.73,12.55-15,22.19-31.88,32.1-48.61Q487.4,110.28,503,84.11c.7-1.17,1.53-2.27,2.81-4.14,1.38,20.27-.67,39.43-4.4,58.49l.87.85L519.63,127l.68.22c-2.18,4-3.67,8.63-6.68,11.85a329.39,329.39,0,0,1-25.19,24.81c-19.2,16.67-39,32.65-58.2,49.29-6.39,5.54-11.85,12.18-17.58,18.46a15.59,15.59,0,0,0-3,6c6.85-6.15,13.45-12.6,20.59-18.39,18.26-14.81,36.74-29.35,55.16-44,11.78-9.35,23.27-19,31.85-31.56.18-.27.57-.4,1.28-.88a42.61,42.61,0,0,1-7.1,17.44c-5,7.05-10.51,13.71-15.66,20.65-2.33,3.14-4.31,6.53-6.79,10.33,10.75,2.34,19.9-.45,28.83-4.74,1,9.42-5.46,26.31-21.76,40.26l25.36-7.16c-.59,9-3.47,16.88-7.77,24.95,11.63-1.16,22.72-2.28,33.81-3.37s22-2.12,32.92-3.18V199.27H523.79V178.86L504.52,186l-.78-1.06c9.61-8.64,13.14-20.86,19.24-31.56,1.32-2.32,2.51-3.31,5.65-2.63,20.94,4.52,42.14,4.64,63.38,2.92,15.46-1.25,30.82-3.21,45.66-8,1.33-.43,2.65-.87,4.56-1.51,1.61,30.7-7.22,59.87-11.43,89.68,8.08.89,16,1.09,23.64,2.78,8,1.76,16.06,4,23.3,7.69,12.47,6.3,16.4,16.54,12.84,30C689,280.44,687,286.46,685,292.48c-.8,2.5-.17,4,1.83,5.82,7,6.43,13.86,13,20.44,19.91,2.22,2.32,3.68,5.48,5.05,8.46,2.41,5.25,1.84,10.29-1.64,15.06-16.63,22.82-25,48.56-26.8,76.56-.48,7.73-.16,15.52-.78,23.24a52.1,52.1,0,0,1-2.94,13.63c-2.45,6.65-7.93,10.1-14.81,11-2.79.37-3.92,1.07-4.51,4.17-2,10.57-4.59,21-7.11,31.5-.46,1.91-1.64,3.65-2.71,5.94-4.09-5-6-10.4-7.49-16-3.18-12.29-3.52-24.87-3.8-37.46,0-1.76,0-3.53,0-5.85a96.34,96.34,0,0,0-10,3.12c-.87.36-1.46,2.36-1.47,3.62-.09,14,.24,28-.09,42-.54,22.78-2.9,45.37-8.38,67.55-1.26,5.1-1.38,5.47-6.25,4-13.85-4.07-27.61-8.44-41.39-12.74-3.62-1.13-7.17-2.47-10.24-3.54,2.05-11.76,4.93-23.25,5.92-34.9q2.91-34.17,4-68.49c.6-20.08,0-40.2-.14-60.3C571.7,387.82,571.61,386.82,571.54,385.47Zm-316,34.15a2.52,2.52,0,0,0,.15-.74q.53-92.55,1.09-185.1c0-2.27-.87-3.08-2.95-3.51-10.18-2.09-20.26-4.71-30.51-6.39-22.5-3.7-45.13-5.86-67.94-2.71-9.1,1.26-18,3.29-25.7,8.66-1.46,1-3.32,2.67-3.44,4.16-.41,5.28-.16,10.62-.16,16.23a23.32,23.32,0,0,0,3.35-.39c8-2.24,16.19-4.24,24.1-6.89,14.15-4.73,28.28-9.32,43.49-8,12.65,1.1,24.64,4,33.53,14.05,11.47,13,17,28.27,15.75,45.52-1.21,16.73-9.53,28.64-26,33.94-2.81.91-5.74,1.44-9.36,2.32,10.51,10.66,23,18.85,27.8,33.46,4.57,13.78,6.62,27.89,7.67,41.52l-55.71-10.39,10.49-3.91c0-10,.39-20.44-.13-30.8-.37-7.23-2.25-14.32-6.59-20.41-3.78-5.3-8.67-7.12-15.25-5.61-.7,27.3-1.39,54.7-2.07,81.49Zm176.82-17c-.19-.37-.38-.74-.56-1.11-19.25-2.14-38.18,0-57,4.25-2.49.56-2.16,2.15-1.95,3.72q1.08,8.11,2.39,16.19c1.25,7.65,2.83,15.27-.15,22.91-.85,2.17-1.89,2.68-4.29,2.19-9.78-2-19.56-4.48-29.47-5.34-11.68-1-23.39.25-34.32,5.14-5.51,2.46-10.54,5.73-13.23,11.48-2.18,4.67-.31,8,4.88,9,3.4-9.9,6.2-12.79,12.78-12.9-.43,2.41-.87,4.8-1.33,7.34,3.62-.66,6.84-1.29,10.07-1.81,7.7-1.24,15.38-2.44,20.87-8.9.36-.42,1.64-.4,2.31-.13,6.34,2.57,12.68,5.14,18.94,7.9a15.71,15.71,0,0,1,9.38,12.19c.89,5.11,1.09,10.35,1.47,15.53.6,8.24,4.59,12.3,13.89,13,0-8.71-.09-17.35,0-26a58.11,58.11,0,0,1,4.57-21.83c3.83-9.23,7-18.74,10.46-28.12,1.05-2.83,2.18-5.65,3.27-8.47l1.72,0c1.21,4.7,3.47,9.43,3.38,14.11-.14,6.61-1.95,13.2-3.17,19.78-.76,4.13-1.73,8.23-2.69,12.7,1.44-.14,2-.14,2.43-.25,8-1.87,10.88-8.05,12.71-15.11,2.07-8,4.17-16,9.19-22.77,6.5-8.82,15.38-12.7,26.38-12.92-.77,5.14-5.39,6.39-7.55,8.45,1,5.66,3.11,10.82,2.27,15.45s-4.67,8.56-7.34,13c1.47.7,3.47,1.8,5.57,2.64,8.36,3.39,13.41.54,13.44-8.49.05-12.63,2.63-24.64,6.41-36.58,1.26-4,1.18-8.34,1.67-12.23a11.11,11.11,0,0,0-1.62-.71c-.63-.08-1.26-.09-1.9-.13-9.3-.53-17.12,2.65-23.76,9.14-6.09,5.95-13.61,7-22.26,6.09Zm-275.24,17c0-2.65.12-4.56,0-6.45-1.92-27.12-3.47-54.28-6-81.35-1.9-20.58-5-41.05-7.75-61.54a7.67,7.67,0,0,0-3.63-5.18,20.35,20.35,0,0,0-9.12-1.72c-1.6.07-4.25,2.14-4.44,3.57-.61,4.47-1.44,9.29,3.83,12.32,2.23,1.29,4,3.54,5.69,5.58,4.72,5.65,7.67,11.9,6.36,19.58a27.38,27.38,0,0,1-9.88,16.7c-5,4.11-6.45,8.68-6.64,14.94-.79,27-.87,53.86,3.45,80.6,1.12,6.92,4.56,9.6,11.42,7.94C146,423.23,151.52,421.29,157.09,419.6Zm471.29,6.56V444c5-1.72,9.51-3.26,14-4.83,5.85-2,11.56-4.76,17.58-5.92,5.19-1,10.72-.2,16.39-.2,0-1.06,0-2.06,0-3.06a198.11,198.11,0,0,1,7.29-48.81,212.92,212.92,0,0,1,17.26-42.15c4.76-9,3.41-16.57-4.46-23-3.89-3.19-8.45-5.57-12.67-8.37-2.17-1.45-3.89-1-5,1.22-2.94,5.84-6.58,11.5-8.47,17.68-5.61,18.38-6.2,37.49-6.94,56.53-.35,8.88-.2,17.8-.86,26.66-.9,12.1-8.27,18.61-20.38,18.24C637.64,427.85,633.15,426.82,628.38,426.16ZM416.55,554.34l-1.26-.61c-1.81,2.66-3.84,5.19-5.38,8-7,12.68-10,26.61-11.27,40.8-1.25,14.42-5,27.34-16.65,36.85-5.17-1.63-10.63-3.81-16.29-5A124,124,0,0,0,348,632.2c-3.75-.24-7.36.22-10-3.43-.89-1.2-3.09-1.78-4.78-2-8.53-1.08-17.87,9.82-15.8,18.4,4.15-1.72,7-6.34,12.57-5.67-2.34,5.58-3.18,10.92-.28,16.64,2.6-3.66,2.24-8.67,6.94-10.59,1.82,4.59,3.57,9,5.31,13.42l1.2-.24c2.91-6.71,7.42-11.62,15.15-11.31a48.32,48.32,0,0,1,22.21,6c8.08,4.58,10.85,11,9,20.19-.16.83-.28,1.68-.54,3.24a71.42,71.42,0,0,0,6.8-2.6c4.82-2.45,5.9-5.3,4.18-10.31a22.06,22.06,0,0,0-1.42-3.53c-5.91-10.85-5.27-21.83.06-32.5,7.64-15.3,12.75-31.45,17-47.9a12.09,12.09,0,0,0-.08-6.67C413.23,566.82,412.34,560.54,416.55,554.34ZM179.16,327.7c12.46,1.37,22.64-3.86,26.73-14.18,8.9-22.48,3-42.52-10.94-60.9-3.44-4.54-8.53-4.42-12.56-.35s-6.33,8.81-6.06,14.67c.6,13.07,1.12,26.15,1.72,39.22C178.38,313.36,178.79,320.56,179.16,327.7ZM629,385.43c-.48,9.49-1,18.21-1.32,26.95a2.93,2.93,0,0,0,1.25,2.35c5.16,1.66,10.29,3.83,15.6,4.43,6.76.77,10.54-4.27,9.19-11.05-2-9.82-7.82-16.62-16.75-20.76C634.69,386.29,632,386.12,629,385.43ZM307.85,476.8c-7.08.82-13,.68-18.39-2.47-.47-.27-1.67.28-2.27.77a27.76,27.76,0,0,0-9.83,14.16c-2.28,8,1.27,15.62,8.18,18,2.69-4.3,5-8.85,8.15-12.81s7.07-7.27,10.4-11.08C305.51,481.73,306.3,479.55,307.85,476.8ZM118,270.69a26.3,26.3,0,0,0-16.27,41.64c3.48,4.62,9.79,6.64,16,4.91-.6-2.91-1.12-5.88-1.91-8.78a2.91,2.91,0,0,0-2-1.48c-9.52-2-10.85-13.29-5.8-19.51a45.74,45.74,0,0,1,6.77-7.19C118,277.74,119,274.8,118,270.69ZM645.15,458.41c7.85-1.1,15.27-1.41,22.26-3.3,8.06-2.17,9.11-9.08,2.28-13.93-2.18-1.54-6.08-1.72-8.87-1.09-4.63,1.05-9,3.2-13.46,5a3.12,3.12,0,0,0-1.57,2.16C645.45,450.68,645.37,454.08,645.15,458.41ZM373.75,610.09c4.64-2,7.06-6.79,9.37-11.55,3.43-7.06,6.69-14.22,9.89-21.39,1.64-3.66,1.74-7.43-.54-10.91a14.59,14.59,0,0,0-2.68-2.51,22.37,22.37,0,0,0-2.36,3.09,20.23,20.23,0,0,0-1.22,3.59C382.05,583.67,377.88,596.93,373.75,610.09ZM650.18,494l1.46,0c3.44-8.36,4-17.07,3.22-26.17l-8.25,2.43C647.8,478.21,649,486.09,650.18,494Z"/><path d="M562.86,326.92c-1.36,6.24-3,12.44-4,18.74-.55,3.65,1.27,6.93,4.25,9.32s5.87,1.56,6.89-2.24a19,19,0,0,0,.73-4.9c.06-14,0-27.92,0-42-10.51,2.11-18,8.26-18.61,15.8-4.15-.36-10.14-6.18-10.12-10.21a5.47,5.47,0,0,1,1.81-3.91c5.4-3.94,11-7.68,16.59-11.31a4,4,0,0,1,3.46-.09c6.68,3.59,13.28,7.34,19.86,11.13,2.38,1.37,3.19,3.49,3.15,6.38-.17,12.32-.07,24.65-.07,37.88,3.33-2.09,4-4.65,4-7.58.19-11.19.57-22.38.54-33.57,0-3.25,1.12-4.71,4-5.7,4-1.36,7.92-3.13,12.3-4.9A150.9,150.9,0,0,0,605.5,346a36.9,36.9,0,0,0,1.57,5.7c7.18-2.94,9.9-8.69,10.43-15.62.54-7.1.72-14.23.77-21.35,0-2.76.53-4.79,3-6.4a85.14,85.14,0,0,0,7.07-5.83c0,1.83,0,3,0,4.15-.17,11.93-1.18,23.92,2.08,35.63.44,1.58,1.58,3,2.39,4.44,1.32-1.09,2.94-2,3.92-3.3,8.61-11.8,9-24.52,3.45-37.55a107.6,107.6,0,0,0-9-17.14c-2.17-3.31-5.8-5.66-9.18-8.82,4.3-8.59,12.08-14.86,21.55-19.35,3.14,4.63,6.49,8.71,8.81,13.31A31.44,31.44,0,0,1,655.89,286c.59,11.67.75,23.4.45,35.08a31.52,31.52,0,0,1-3.09,13.13c-4.17,8.25-9.35,16-13.91,24.05-1.79,3.17-3.89,3-6,1-2.57-2.42-4.78-5.22-7.13-7.86-1.15-1.3-2.27-2.63-3.23-3.74-5.05,5.49-9.87,10.69-14.63,15.94-2,2.21-3.79,2.36-6,.19-3.46-3.35-7.16-6.45-11-9.83-2.57,2.42-4.95,4.68-7.35,6.93a18.78,18.78,0,0,1-2.84,2.53c-2.57,1.57-5.21,4-7.89,4.11-2,.06-4.16-3-6.6-4.91-3,1.48-6.62,3.42-10.36,4.9a4.79,4.79,0,0,1-4.14-.65A35,35,0,0,1,540.8,342.3a5.76,5.76,0,0,1,1.87-3.81A51.21,51.21,0,0,1,562.86,326.92Z"/><path d="M518,486.47c6.46-2.89,9.37-8.41,12-14.28,3.46-7.6,9.45-13.2,16-18.12,6.73-5.09,13.77-9.77,21.06-14.9,0,5.24.15,9.65,0,14.05-.75,18.92-1.64,37.83-2.34,56.75-.13,3.65-1.16,6.29-4.22,8.69-7.39,5.8-14.46,12-21.5,18.25-1.67,1.48-2.82,1.42-4.61.48a86.8,86.8,0,0,1-25.34-19.84c-1.65-1.89-2.21-3.67-.78-5.72q4-5.74,8.2-11.33c.83-1.1,2-2,2.91-3,3.77-4.24,3.76-4.84.06-9.25C519.08,487.78,518.7,487.29,518,486.47Z"/><path d="M254.08,437c7.51.75,14.07-.58,20.2-5.1-1.07-8.72-2.19-17.75-3.31-26.82,5.71.23,7.42,1.91,7.57,7.15.37,13,.67,25.94,1.14,38.9a12.69,12.69,0,0,1-4.71,11c-13.24,11.34-15.6,33.54-8.4,47.37,6,11.55,16.58,14.91,29.08,14.78,2.94-10.69,8-19.81,19.89-22,7.87-1.46,14.43,1.61,19.66,8.1l-67.48,57C256.62,524.24,254.08,481,254.08,437Z"/><path d="M475.91,17.81a39.15,39.15,0,0,1,7.29,16.67c3.14,15.28.85,30.35-1.89,45.39-1,5.46-2.3,10.88-3.47,16.31l.86.71Q489.53,85,500.35,73l.73.41c-2,4-3.88,8-6,11.94-15.4,28.75-34.31,55.18-53.94,81.13-1.69,2.23-3.81,5.79-6.81,4-1.65-1-2-5.16-1.88-7.82.94-15.29,7.79-28.77,13.67-42.49,7.83-18.28,16.62-36.17,22-55.43A228.79,228.79,0,0,0,475.91,17.81Z"/><path d="M306.45,544.85c0,13.29,0,26.09,0,38.89,0,4.2-.41,8.4-.28,12.59.23,8.23-.58,16.08-4.63,23.57-3.14,5.79-2.95,12.34-1.25,18.59a11.39,11.39,0,0,0,4,6.2,24.73,24.73,0,0,1,10.64,14.89l6.87-4c2.06,3,3.76,6.11,6.11,8.63,4.21,4.54,4.86,4.45,10.44,1.11a12.87,12.87,0,0,0,13.16,5.22c.71-2.56,1.19-5.06,2.1-7.39a7.75,7.75,0,0,1,8.36-5.3c6.52.47,12.12,2.57,15.38,8.85,1.06,2,1.27,3.58-.78,5.22q-12.92,10.34-25.68,20.87c-1.85,1.52-3.39,1.43-5.48.42-12.48-6.07-22.51-15.13-31.33-25.62a148.88,148.88,0,0,1-22.92-37.14,13.56,13.56,0,0,1-1-5.12c-.2-21.61-.35-43.23-.34-64.84a6.9,6.9,0,0,1,2.08-4.81C296.63,551.85,301.7,548.34,306.45,544.85Z"/><path d="M302,364.43v-51c-9.93,1.33-16.69,7.63-17.06,15.95-4.8-.71-9.78-5.19-10.21-9.77-.15-1.65.53-4.16,1.73-5,5.67-4,11.61-7.63,17.57-11.18.82-.49,2.51-.17,3.48.36,6.8,3.69,13.59,7.41,20.2,11.43,1.15.7,2,2.87,2,4.37,0,9-.19,18.05-.39,27.08-.13,5.53-1.45,11.42,5.86,14.5l-20.72,14.72-4.05-6.77c-2.93,1.75-5.67,3.34-8.37,5-3.28,2-6,1.72-8.79-1.21-5.93-6.28-8.58-14-10-22.2a4.33,4.33,0,0,1,.79-3.11c5.54-6.64,13-10.18,21.57-13.27-4.58,7.79-5.77,15.34-3.2,23.27C294.11,362.88,297.22,365,302,364.43Z"/><path d="M403.38,350.37l7.46,7.29c-3.59,5.23-7.07,10.52-10.83,15.59-.7.94-2.59,1.45-3.9,1.4-12-.48-22.64-10-25.05-22.39a56.46,56.46,0,0,1,.83-25.69c3.28-12.22,12.59-18.92,23-24.5a5,5,0,0,1,3.26-.11,22.74,22.74,0,0,1,16,30.36c-.84,2.23-2,2.91-4.27,2.45-3.6-.74-7.23-1.41-10.88-1.9-6.43-.87-9.78,2.09-9.63,8.49s.4,13,.69,19.45c.17,3.85,3.07,8.27,5.39,8.45s5.09-3.29,6-7.55c.38-1.86.56-3.76.88-5.64S403,352.58,403.38,350.37Zm-14.07-21.08L404,328c-3.85-7-4.8-15.41-12.31-20.63C390.85,315.11,390.08,322.2,389.31,329.29Z"/><path d="M450.75,617.88c.35,15.74.7,30.85,1,46,.27,12.84.62,25.67.69,38.51a9,9,0,0,1-2.21,5.57,38.5,38.5,0,0,1-16.75,11c0-7.28.06-14.22,0-21.15-.2-21.23-.51-42.45-.57-63.68a10,10,0,0,1,2.39-5.92A35.33,35.33,0,0,1,450.75,617.88Z"/><path d="M423.37,369.59c.68-4.3,1.67-8,1.8-11.72.42-12.69.74-25.39.56-38.08,0-1.72-3.14-3.39-4.84-5.08l15-12.67v11.85l1,.37L452,300.47c7,5.27,11.27,11.54,11,20.64-.33,11.69-.16,23.4-.12,35.11,0,11.33-4,17.58-15,22.26,5.38-22,3.28-43.58.09-65.56-6.31,1.47-9.08,5.39-10.5,10.31-2.74,9.46-2.23,19.13-1.15,28.75.58,5.15,1.8,10.24,2.82,15.88Z"/><path d="M341.71,373.65c-8.41-6.36-12.83-13.73-12.62-23.83.29-14.35.07-28.72.07-43.08V303c7.91-.05,14.17,6.31,14.32,14.54.19,9.79,0,19.58.08,29.36a35,35,0,0,0,1.06,8.61c1.36,5,5.19,5.84,8.7,1.89,3.76-4.23,4.67-9.54,4.63-14.94-.09-11.94-.43-23.89-.67-35.83,0-1.27,0-2.53,0-4.47,3.9,2,7.5,3.68,11,5.63.58.33.8,1.73.78,2.63q-.48,18.85-1.12,37.73a4.64,4.64,0,0,1-1.09,3C358.54,358.71,350.18,366.11,341.71,373.65Z"/><path d="M535.87,372.15a34.5,34.5,0,0,1-17.81-6.67,4.12,4.12,0,0,1-1-3q.21-44.26.61-88.52a5.31,5.31,0,0,1,1.29-3.31c4.06-4.2,8.26-8.26,12.86-12.8.09,1.38.21,2.39.21,3.41q0,49.41-.08,98.82C531.91,364.45,530.75,369.19,535.87,372.15Z"/><path d="M343.91,614.39c.93-29.21,1.84-58,2.76-86.71,7.2-1,11,2.09,13,8.64,4.36,13.93,5.37,28.17,4.29,42.53a117.68,117.68,0,0,1-3.91,22.76C358,608.93,352.76,613.61,343.91,614.39Z"/><path d="M463.62,693.78c0-10.89.12-21.53,0-32.16q-.33-25.54-1-51.1a6,6,0,0,1,2.55-5.44c4.07-3.14,7.92-6.57,12.43-10.37.3,8.63.63,16.44.85,24.25q.78,26.68,1.48,53.37C480.18,681.52,473.36,690.85,463.62,693.78Z"/><path d="M407.75,646.91l7.55,10.17c2.22-2.52,4.32-4.92,6.54-7.46a19.12,19.12,0,0,1,.25,2.2c.32,23.51.59,47,1,70.53.05,3-.23,5.12-3.61,5.93-3.15.75-6.14,2.18-9.31,2.72-.92.15-3-1.57-3.18-2.68-2.71-14.94-3.66-30-1.6-45.1.54-3.89,2.44-7.69,4.19-11.3s2.24-7-.45-10.59C406.12,657.35,405.65,652.83,407.75,646.91Z"/><path d="M487.37,305.9c-.9,3.94-2.48,7.71-2.5,11.49-.1,13.06.21,26.14.74,39.2.08,1.8,2,4.48,3.61,5s4.9-.48,5.86-1.89c3.2-4.71,5.69-9.91,8.54-15.07a45,45,0,0,1,3.75,4.52,3.15,3.15,0,0,1,0,2.94c-4.16,4.94-8,10.32-13,14.29-2,1.61-7,1-9.84-.33-4.37-2.12-8-5.77-11.94-8.75s-4.35-7.22-4.41-11.3c-.12-7.86.46-15.73.78-23.6a7.23,7.23,0,0,1,.38-1.47c1.61-6.1,15.46-19.41,21.62-20.78,5.38-1.2,14.68,2.33,17.44,7.18.85,1.49.79,4.61-.22,5.84a56,56,0,0,1-10.53,9.23C500.94,312.62,494.15,309.66,487.37,305.9Z"/><path d="M333.62,520.3c-.39,28.68-.78,56.61-1.17,85.05H317c0-9.17,0-18.41,0-27.66.06-10.17.68-20.36.24-30.51C316.76,534.74,323.25,527,333.62,520.3Z"/><path d="M535.92,446.7c7.3-3.74,16.65-4.59,18.71-15.22h-10.4c6.92-6.34,13.09-12.51,13.7-22.89l-35.13,9.74c3.52-6.11,11.61-6.88,13.9-14.58l-23.23,5-.24-.57c2.71-1.3,5.36-2.71,8.13-3.87,9.46-3.93,18.86-8.05,28.48-11.53,4.28-1.55,9-1.9,13.59-2.47,2-.25,3,1,3,3.35,0,12.46.14,24.92.14,37.38a5.06,5.06,0,0,1-1.3,3.24c-4.22,4.21-8.6,8.26-12.92,12.36s-5.39,4.2-10.69,1.8A50,50,0,0,0,535.92,446.7Z"/><path d="M492,665.5c0-21.81-.05-43.62.06-65.43,0-2.94-.09-7.11,3.43-7.62,2.4-.36,5.38,1.9,7.83,3.42,2.74,1.7,3.5,4.37,3.63,7.74A241.72,241.72,0,0,0,509.08,629c1.36,9.31-.33,17.67-5.87,25.17-3,4.13-6.52,8-9.8,11.94Z"/><path d="M279.16,240.92A215.3,215.3,0,0,1,317.79,211c1.58,12.17,3.11,23.91,4.69,36.1Z"/><path d="M377.91,686.88l16.33-2.49c.45,13.58.9,26.9,1.36,40.78-5.78-2.79-11-5.25-16.17-7.9a3.54,3.54,0,0,1-1.45-2.66C377.87,705.49,377.91,696.36,377.91,686.88Z"/><path d="M289.44,406.91l15.81,2.38c0,2.35.06,4.72,0,7.08-.2,6.48-.38,13-.75,19.44a4,4,0,0,1-1.69,2.86c-4.27,2.19-8.67,4.11-13.36,6.27Z"/><path d="M541.22,234.22l31.63-24.17c.37,7.7.7,14.74,1.06,22.27l-32.48,2.82Z"/><path d="M517.6,215.1c1.82-3.56,3.35-6.74,5.1-9.78a3,3,0,0,1,2.36-1.26c4.27.27,8.53.77,13.11,1.22,0,7.67,0,15.13,0,22.59a2.93,2.93,0,0,1-1.24,2c-3.82,2.44-7.72,4.75-11.61,7.12,1.34-7.22,2.67-14.36,4.08-21.91Z"/><path d="M332.54,432.36l-14,2.2V410.34h14Z"/><path d="M275.47,237.39c-2.19-6.43-5.59-11.61-11.46-15.26-4.42-2.74-3.87-7.57-3.79-12.67l16.89,1.13C276.93,219.71,279.67,228.65,275.47,237.39Z"/><path d="M541.51,543.22l22-19.59c.66,9.46-2.17,17.62-5.77,25.56a2.64,2.64,0,0,1-2.44.86C550.88,548,546.58,545.77,541.51,543.22Z"/><path d="M278.44,604c-1.49-3.26-3.15-6.46-4.41-9.8-2.14-5.68-4-11.46-6-17.17-.76-2.09-.32-3.37,1.6-4.68,3.21-2.18,6.15-4.75,9.64-7.49v38.91Z"/><path d="M344.05,410.43,354,411c.62,6.68,1.21,13.09,1.86,20.06-3.18,0-6.2.32-9.09-.17-1.06-.17-2.51-2.21-2.58-3.46C343.89,422,344.05,416.55,344.05,410.43Z"/><path d="M475.62,588l-20,16.23-.81-.31c1.39-5.88,2.74-11.78,4.23-17.64.11-.43,1.23-.89,1.86-.85,4.86.31,9.72.73,14.57,1.12Z"/><path d="M367.1,688.81v19.12l-13.31-8.35A24.58,24.58,0,0,1,367.1,688.81Z"/><path d="M519.12,628.14V606.85c2.85,1.76,5.2,3.09,7.39,4.65a2.51,2.51,0,0,1,.76,2.25c-2.11,5-4.4,10-6.63,15Z"/><path d="M566.35,204.69l-14.94,12.62V204.69Z"/><path d="M290.28,210l13-.73L288.4,223.16C289.11,218.2,289.67,214.24,290.28,210Z"/></svg>