<svg id="Ebene_1" data-name="Ebene 1" xmlns="http://www.w3.org/2000/svg" viewBox="0 0 800 800"><defs><style>.cls-1{fill:#9e9a98;}.cls-2{fill:#437845;}</style></defs><polygon class="cls-1" points="669.05 149.6 183.57 483.86 183.88 658.11 416.24 774.12 633.65 647.44 630.82 326.59 685.27 338.81 696.25 263.52 695.1 256.33 732.88 189.31 671.97 152.44 669.05 149.6"/><polygon class="cls-2" points="110.59 241.65 118.53 327.02 131.4 369.81 183.31 344.51 183.57 483.86 669.05 149.6 621.46 103.09 395.81 62.59 260.03 89.65 139.53 73.89 161.65 125.89 126.5 136.47 118.59 162.83 109.65 167.3 68.53 194.16 88.94 220.23 110.59 241.65"/><path d="M548.82,408.89,574.73,382l21.89,27.41c-5.89,7.12-11.49,14.15-17.4,20.9-2.16,2.47-2.09,4.1-.09,6.52,5.23,6.32,10.08,12.94,15.36,19.21,2.15,2.55,2.38,4.28,0,6.88-6.76,7.53-13.27,15.29-19.85,23a41.37,41.37,0,0,0-2.4,3.62l25.07,23.07c-6.14,7.79-11.46,14.39-16.63,21.11-7.08,9.17-7.14,9.69-.09,19,3.2,4.21,6.83,8.11,10.33,12.09a28.35,28.35,0,0,1,7.33,21.73c-.8,10.73-1.13,21.51-2,32.24a7.34,7.34,0,0,1-3.08,5.16c-24.06,12.91-48.26,25.56-72.38,38.37-2.46,1.31-4.24,1.39-6.38-.65-3.36-3.21-7.21-5.92-10.54-9.17-2.53-2.48-5-2.77-8.24-1.71-15.56,5-31,10.57-46.84,14.64C399.31,678,353.7,669,312.23,639.11c-.38-.28-.81-.47-2.36-1.32-6.25,6.93-12.77,13.94-19,21.21-1.67,2-2.89,2.44-5.19,1.44q-31.57-13.73-63.23-27.27c-3.08-1.32-4-3.33-4.28-6.6q-1.9-24.77-4.35-49.47c-.95-9.55,1.44-16.92,9.86-22.82,6.75-4.72,12.67-10.91,18-17.25,5.88-7,12.1-10.2,21.41-8,7.45,1.72,15.24,2,22.81,2.88v42.66c-3.12-2.35-5.09-3.84-7.45-5.64-3.66,3.9-7.4,7.61-10.81,11.6-2.29,2.69-2.57,5.43.26,8.47,3.48,3.74,6.35,8,9.82,12.55l8.8-7.55c6.37,12.23,4.74,28.25,18.35,37-1.52-4.24-2.77-8.58-4.6-12.68-6.8-15.28-8.91-31.33-8.94-47.92,0-13.48-1-27-1.6-40.43a9,9,0,0,0-.35-1.63c-7.32-1.13-14.58-1.67-21.53-3.41-28-7-41.29-29.77-34.66-58.65,3.84-16.69,11.91-31.11,23.45-43.63a11.43,11.43,0,0,0,3.08-8.13c.26-8.47.5-17,2-25.35,1.59-8.8,7.91-13.54,17.12-15,0,8-.58,15.91.12,23.66,1.4,15.41,9.86,25.53,24.41,31,6.7,2.53,13.49,5.48,19.28,9.59,9.48,6.72,14,17,16.18,28.16,3.41,17.17,1.24,34.23-1.33,51.28-2.64,17.51-4.84,35-.64,52.66,6.91,29,29.95,49.94,59.75,53.14,31,3.32,57.84-6.57,80-28,21.92-21.21,23-54.85,3.68-81-11.78-15.94-27.12-27.87-43.66-38.19-27.25-17-54.91-33.34-82.37-50-13.48-8.2-26.48-17-37.27-28.78-16.06-17.47-21.36-37.81-17.38-61.07,3.72-21.73,12-41.53,23.64-60.1.66-1.06,1.28-2.16,2.34-3.94a27.13,27.13,0,0,0-4.12.68c-20.9,7.33-41.8,14.63-62.64,22.09-5.35,1.91-7.12,6.49-7.69,11.79a51.57,51.57,0,0,1-1.69,9.92c-2.5,8.09-8.27,12.69-16.47,14.48-16.76,3.64-34,5.48-49.72,13-13.46,6.43-26.57,13.61-39.92,20.31a95.9,95.9,0,0,1-12,5c-8.85,3-12.59.3-11.92-9.14.56-8,1.69-16,2.89-23.91.64-4.19-.12-6.91-3.84-9.74C103.24,315.4,98,297.37,103.47,278.84c2.27-7.67,4-15.51,5.68-23.35a22.12,22.12,0,0,0-5.39-20.22c-6-6.45-12.82-12.07-19.3-18-5.43-5-11-9.84-16.28-15-2.71-2.61-2.51-5.12.35-8.13a128.24,128.24,0,0,1,40.68-28.73c12.3-5.55,12.21-5.74,12.22-19.32,0-11-.08-11.23,10.65-14.22,12.51-3.49,25.26-6.14,37.75-9.7,5.8-1.65,11.24-4.59,16.84-7,.59-.25,1.09-.72,1.69-.91q24.31-7.48,48.65-14.9a22.23,22.23,0,0,1,3.48-.34c1.62,7.72,4.12,15.41,4.71,23.24,2,26.43,3.55,52.9,4.9,79.37,1.44,28.25,2.46,56.53,3.67,84.79,0,1.1.22,2.19.43,4.24,8.78-2.65,17.3-4.8,25.5-7.8,9.94-3.63,19.56-8.13,29.44-12,3.68-1.43,7.69-2,11.54-3.05,6-1.6,12.34-2.41,17.85-5,23.49-11.14,47.55-19.44,74.05-18.29a97.24,97.24,0,0,1,38.1,9.24c20.59,9.87,42.55,15.22,64.5,20.77,16.84,4.26,33.78,7.72,51.15,9a25.74,25.74,0,0,1,9.51,3.09c31.22,15.82,62.34,31.84,93.58,47.64,7,3.55,9.58,2.28,11.14-5.4,1.89-9.26,2.65-18.78,4.89-27.95,3.08-12.6,6.95-25,10.8-37.4.89-2.88,1.39-5-1.15-7.19-3.56-3.1-3.75-6.74-1.27-10.71q11.52-18.35,22.92-36.77c3-4.91,6-9.88,8.8-14.92,1.05-1.89,1.26-3.73-1.25-5.26-6.59-4-13-8.33-19.5-12.45-5.44-3.43-11.08-4.94-17.21-1.49-1.33.75-3,.84-4.85,1.31-4.89-18.86-22-22.86-36.39-29.38-30.88-14-63.79-21.64-97.1-27.21A892,892,0,0,0,376.84,107.9c-13.19.37-26.35,3.45-39.43,5.78-3.69.66-6.63.49-9.41-1.82-3.93-3.27-8.4-3.9-13.16-2.72-17.9,4.45-35.77,9-53.68,13.44-2.77.69-5.64,1-9,1.55l-6.09-31.51c-10.1,3.31-19.62,6.58-29.23,9.52-5.2,1.58-10.69,2.25-15.84,4-10,3.31-20,6.71-29.77,10.73C161.1,121,151.16,125.4,139.55,124a14.57,14.57,0,0,1-.33-2.38c.3-10.23-3-19.13-9.32-27.19C120.17,82,115.77,67.38,112.27,51.16c3.75,1.52,6.66,2.64,9.52,3.86,8,3.41,15.74,7.36,23.9,10.18C159.61,70,174,68,188.24,66.78c16.2-1.34,32.35-2.69,48.46,1,4.66,1.06,8.81-.5,13.32-2.42,6.82-2.92,14.38-4.19,21.69-5.88,12.65-2.93,25.36-5.63,38-8.49a55.14,55.14,0,0,0,5.88-2.12C305.88,41.12,295.32,35,292.92,21c8.75-2,17.8-4.46,27-5.79,3-.44,6.51,2.13,9.92,3.37,9-15.73,23.38-10.32,36.49-8.6,4.37.57,7.49.63,11.82-1.42,6.14-2.92,13.47-3.94,20.39-4.43s14.13.36,21.14,1.23c3,.37,5.73,2.36,8.65,3.43a11.89,11.89,0,0,0,4.85,1,82.6,82.6,0,0,0,10-1.55c10.87-2.27,19.81,1.38,27.92,8.44,1.66,1.45,4.39,2.11,6.68,2.26,4,.27,8.09-.63,12-.13a48.47,48.47,0,0,1,11.29,3.31c3.84,1.5,7.47,3.51,12,5.71-1.79,3.86-3.28,8.09-5.6,11.8s-5.44,6.89-8.54,10.71c7.38,4.64,14.78,5.23,22,6.07,10.66,1.24,20.85,3,29.19,10.83,2.28,2.14,6.44,3.07,9.78,3.15,25.18.64,50.37,1,75.56,1.28,16.37.17,32.76,0,49.62,0A110.18,110.18,0,0,1,675.27,100a25.17,25.17,0,0,1-3.2,5.37c-4.44,5.1-6.65,10-3.84,17.26,1.3,3.35-1.12,8.38-2.45,12.44-3.73,11.37-3.62,11,6.19,17.34,5.55,3.62,10.13,8.72,15.25,13a10.32,10.32,0,0,0,3.9,1.92c5.65,1.53,12,1.81,16.88,4.58,8.77,5,16.77,11.29,24.88,17.33.9.67,1.16,3.64.46,4.78-5.37,8.72-11,17.27-16.64,25.85-5.45,8.31-10.9,16.62-16.45,24.86-2.12,3.14-1.59,5.75,1.16,8s2.31,4.75,1.45,7.77c-4.27,14.95-8.79,29.85-12.3,45-2.53,10.92-3.76,22.14-5.29,33.27-.68,4.94-3.47,6.39-7.59,4.95-6.47-2.26-12.73-5.11-19.09-7.7-1.45-.59-2.91-1.14-5.14-2v6.13q0,101.54,0,203.07c0,7.11-1.43,13.79-5.2,19.74-2,3.2-1.77,5.89.61,8.2,5.69,5.52,6.78,12.29,6.79,19.82,0,23,.4,46,.61,68.93,0,1.93-.27,3.85-.3,5.78-.1,6.65-3.26,10.8-9.75,12.56-14.7,4-29.33,8.28-44.07,12.11a118,118,0,0,0-33.13,14c-32.46,20.2-64.9,40.44-97.64,60.18-16.36,9.85-33.37,18.62-50.07,27.91-8.68,4.82-16.89,4.88-25.89-.12-31.87-17.72-64.06-34.86-96.05-52.34-22.13-12.1-43.75-25.21-66.36-36.32-15.19-7.47-31.82-11.95-47.58-18.33-8.75-3.54-17.1-8.1-25.45-12.53a6.65,6.65,0,0,1-3-4.82q-1.41-55-2.35-109.93a61.4,61.4,0,0,1,2.1-16.62c2.31-8.68,2.6-17.34,2.25-26.24-1.88-48.35-3.47-96.72-5.29-145.07-.15-3.84.85-6.29,4.45-7.9,12.12-5.44,24.11-11.15,36.26-16.51,2.38-1.05,5.26-1,8.92-1.6,0,12.3-.13,24,0,35.7q1.58,121.79,3.14,243.55c.09,7.55,2.66,12.28,9.33,16.29,39,23.49,80.2,42.77,121.4,62q31.65,14.76,63.25,29.63c5.41,2.56,10.19,1.38,15.08-1.38q32.91-18.64,65.91-37.16c37.94-21.35,75.82-42.8,113.89-63.94,4.57-2.54,6-5.27,6.07-10.41q1.15-122.73,2.71-245.47c.09-8.47,0-16.94,0-26.91a67.35,67.35,0,0,0-5.44,4.37c-12.35,12.86-24.48,25.95-37,38.63C545,405.91,528,422.53,511.1,439.26c-1.13,1.12-2.46,2-3.88,3.17-30.44-23.38-66-37.28-99-55.92-10.68-6.05-20.63-13.6-30.2-21.34-6.94-5.6-11.21-13.49-12.23-23.17l34,30.7c15.84-14.16,30.12-28.63,42.2-46.55-6.74-5.61-13.42-11.19-21-17.48l-16.33,20.44,15.52,13.51-18.89,21.63L382.85,344c3.34-3.7,6.23-7.36,9.61-10.5,2.92-2.71,2.72-5.1.43-7.81-2.9-3.43-5.85-6.82-8.8-10.21-1.13-1.3-2.31-2.56-3.71-4.09,6.24-5.34,13.49-7.3,20.95-8.41,12.24-1.82,24.32-1.29,36,3.32,7.77,3.05,13,8.26,14.31,16.69,2,12.8,8.94,22.46,18.91,30.28,6.44,5,7.19,7.11,2.66,14.2-2.71,4.24-2.4,7.29-.06,11.24,2.86,4.81,5.17,9.95,7.71,14.93,9.35-4.09,11.94-11.6,9.67-28.49,8,4.07,15.61,7.95,23.22,11.87,8.06,4.16,16.32,7.61,25.61,7.49,5.85-.07,8.8-1.69,13.59-7.92-10.11,5.37-19,4.28-27.66.19-5.38-2.52-10.81-4.95-16.16-7.53-13.93-6.7-27.56-13.87-38.78-24.81-6.69-6.54-11.55-14.1-13.66-23.36-1.77-7.76-6.84-13.25-13.79-16.41-24.11-11-47.76-9.24-69.53,5.58-15.24,10.37-17.89,30.06-8.12,47.51,8,14.29,20.34,24.05,34.39,31.48,20.3,10.72,41.1,20.47,61.55,30.91,27.91,14.25,52.69,32.39,72.49,57.15,18.23,22.79,23.66,48.57,20.77,76.89A137.15,137.15,0,0,1,543,596.8c-1.45,3.2-2.31,6.66-3.55,10-1.13,3-.31,5,2.45,6.8s4.54,1.69,6.57-.64,4.23-4.41,6.09-6.82c5.1-6.58,4.8-6.5,1-13.77a12.36,12.36,0,0,1-.85-8.19c6.92-25.76,7.33-51.36-.74-77-.46-1.46.21-3.69,1.1-5.08,2.6-4.06,5.48-7.94,8.44-11.74,1.78-2.27,1.63-4.16.07-6.45-4.6-6.78-8.92-13.76-13.65-20.44-2.79-3.94-3.1-7.08.26-11,4.17-4.87,7.51-10.43,11.45-15.51,1.71-2.21,2-3.81.4-6.32C557.38,423.33,553,415.82,548.82,408.89Zm10.43-83.24c1.65-6.08,3-11.15,4.42-16.21.73-2.61-.47-4.07-2.85-4.55-6-1.2-11.91-2.71-17.94-3.26-10.3-1-20.41-1.78-29.15-8.42a16.34,16.34,0,0,0-9.46-3c-10.07.14-18.17-3.13-24-11.5a18,18,0,0,0-2.76-2.68c-34.46-31.25-88.43-32.57-124-12.68-19.05,10.66-31,27.18-37.13,47.88-1.8,6.1-1.56,12.9-8.76,17.55,3.69,1.49,6.34,2.55,10.35,4.15-2.78,4.15-5.22,7.92-7.81,11.57-1.2,1.68-3.07,3-4,4.75-1.33,2.59-.79,5.21,2.21,6.35,2.75,1,4.48-.21,5.42-3.07a29.12,29.12,0,0,1,2.81-5.08l1.24.38c.24,2.66.44,5.32.72,8,2.3,22.09,13.87,38.11,33.13,48.26,11.14,5.87,23.11,10.17,34.73,15.18,2.82-5.26,2.91-5.1,7-.37,3.64,4.25,7.34,8.79,11.94,11.8a345.32,345.32,0,0,0,29.92,17.41c14.08,7.34,29,13.16,41,24,3.72,3.35,6.87,7.32,10.28,11l-.84,1-11.22-1.48c2.23,2.59,3.4,4.49,5.06,5.75,3.44,2.63,7.48,4.54,10.65,7.43a79.92,79.92,0,0,1,9.61,11.06c2.43,3.23,3.87,7.28,6.56,10.23,4.08,4.49,6.72,9.41,7.06,15.41A162.87,162.87,0,0,1,508.09,585a17,17,0,0,1-8.18,10.7,74.72,74.72,0,0,0-9.33,7.41C485,607.84,480,613.46,473.9,617.39c-14.06,9.06-30,13.68-46.16,17.47-4.28,1-9.1.16-13.61-.32-5.39-.57-10.69-2.13-16.07-2.43-14-.79-26.95-4-37.46-14.07-1-1-3.33-.89-5-.82-1.29.06-2.54.9-4.23,1.55-.66-3.62-.94-6.84-1.93-9.83-.53-1.62-2.12-3.82-3.52-4.06-12.09-2.07-15.61-6.47-16.78-20.18-1-12.1-.52-24.43-5.27-36.08-1.07-2.62-.61-6.06-.23-9,.9-7,2.16-14,3.3-20.93,2.63-16,5.57-32,4.36-48.34-1.34-18.09-12.36-32.47-28.79-37a24.18,24.18,0,0,0-3.72-.39c4.08,7.28,7.86,14,11.6,20.7,12.83,23,13.91,46.23,1.55,69.92-1.93,3.68-2.46,8.29-2.81,12.55a133.73,133.73,0,0,0-.05,16.87c.7,16,1.15,32.13,5.65,47.72,2.7,9.34,7.7,16.39,16.83,21.08,5.44,2.79,11.2,7.52,13.72,12.84,4.43,9.37,10.74,11.12,19.62,9.21a17.58,17.58,0,0,1,2.39-.32,57.84,57.84,0,0,1,29.05,5l-5.16,8.74c11.26,3.41,18.56-1.39,24.54-9.36a17.13,17.13,0,0,1,2.07.55c14.72,6.2,29.18,4.69,43.45-1.52a21.72,21.72,0,0,0,3.86-2.71c2.34-1.73,4.41-4.12,7-5.12,24.13-9.33,41.53-25.18,49.58-50.29,2-6.11,3.69-12.29,5.81-18.35.47-1.36,2.41-3.44,3.13-3.24a11.8,11.8,0,0,1,4.77,3.33,54.17,54.17,0,0,1,4.17,5.55c6.09-10,8.94-19.16,7.9-30l-7.53,4c.44-5.1.6-9.39,1.23-13.59,1.93-12.74,2.59-25.27-3.89-37.14-2-3.66-3.26-7.75-5.49-11.24-1.39-2.19-3.71-4.66-6-5.24-8.58-2.16-14.09-7.18-17.08-15.38a37.56,37.56,0,0,0-14.72-19.18c-13.43-8.78-26.62-18-40.61-25.82-19.08-10.62-38.93-19.85-58.25-30-14.33-7.56-27.21-17.11-37-30.3-5.86-7.89-9.78-16.51-9.7-26.65.16-18.76,8.89-32.43,24.64-41.94,4.63-2.8,9.51-5.19,13.9-7.57-.86-4.35-1.65-8.39-2.45-12.42,9.21,9.91,9.21,9.91,19,10.28-.26-3.05-.53-6.15-.81-9.25l1.24-.41c4.39,6.89,10.17,11.46,18.79,12,.27-2.74.51-5.18.89-8.93,4,6.16,7.7,10.58,14,11.74.71-2.4,1.3-4.42,2-6.88,7.52,11.21,7.66,11.27,13.16,5.81,3.25,10.6,9.93,18.42,19.24,23.85,3.35,2,4.12,3.8,3.26,7.64-2.77,12.42-2.15,24.17,9.63,32.34,14.59,10.13,30.12,18.49,47.21,23.57a45.47,45.47,0,0,0,12.34,1.44c3.22,0,4.62-2.36,4.83-5.51s-2.1-3.61-4.34-3.93c-3.49-.48-7-.91-10.52-1.12-19.07-1.13-33.16-10.29-42.34-26.8-4.64-8.34-1.34-14.5,7.94-16.21,4.1-.76,8.21-1.47,12.3-2.28,10.32-2,20.68-4.35,27.34,8l8.57-12.48ZM149.79,271.28c-3.3,5.52-2.64,7.37,2.85,9.23,7.32,2.48,15.83-2.77,15.28-10.42-.38-5.32-2.61-10.83-5.21-15.59-4.22-7.74-18.78-8.28-24.31-1.34-3.7,4.64-7.07,9.56-10.88,14.11-10.89,13-7.09,27.34-.25,36.92,11.25,15.74,37.78,21.17,55.92,11.68,23.55-12.32,32.58-48,17.11-70.47-5.3-7.69-12.45-14.24-19.37-20.64-13-12-26.11-23.95-34.67-39.77-5.73-10.59-6.91-21.77.39-32,8.54-11.93,20.23-20.53,34.45-24.09,18-4.51,33.21,5,49,12.81-6.73,4.15-14.07,6.9-20.53,11s-12.1,9.63-18.76,15.07c-.89-3.84-1.73-7.21-2.44-10.6-1.9-9.22-9.1-14-17.84-10.41-5.3,2.16-9.75,6.47-14.5,9.93-2.58,1.88-2.75,4-.32,6.34s4.36,5.25,7,7.29c16,12.37,31.86,24.95,48.33,36.68,10.58,7.54,17.75,17,19.67,29.62,2.14,13.92,2.72,28.08,4.24,42.1a28.15,28.15,0,0,1-6.16,21.65c-4.85,5.88-10.17,11.78-16.4,16-21.7,14.85-46.26,19.12-72.11,17.45-4.27-.27-8.52-.86-12.71-1.3-3.69,15.05-4.6,26.17-2.49,32.64,2.7-.56,5.67-.69,8.21-1.81,8.07-3.54,16.23-7,23.87-11.31,22-12.44,44.7-22.3,70.25-24.94,10.8-1.12,19.62-7.1,19.06-21.64-.33-8.49.45-17,.53-25.54a1363.48,1363.48,0,0,0-7.68-154c-.76-7.29-1.69-14.55-2.68-22.94-11.67,3.77-22.5,7.17-33.27,10.75-15.66,5.21-31.27,10.61-46.94,15.8-8.21,2.72-16.5,5.2-24.77,7.71-3,.92-4.31,2.68-4.22,6,.59,22.14.94,44.29,1.6,66.43.27,8.92,1.09,17.82,1.65,26.51,6.92-.93,13.4-2.14,19.93-2.61,18.93-1.37,32.67,8,37.26,25.7,1.71,6.59,3.86,13.54.32,20.23-7.6,14.39-32.2,17.24-43.15,5.12C140,279,141.61,273.71,149.79,271.28ZM306.17,476.63c5-5.19,4.8-10.55.92-15.89-4.8-6.61-9.58-13.26-14.76-19.58a80.48,80.48,0,0,1-17.73-37.93c-1.13-6.56-1.74-13.2-2.6-19.94-5.75,4.26-8.56,11.48-8,20.23a76.29,76.29,0,0,0,10.36,34.27c5.3,8.89,11.83,17.12,18.47,25.1,7.38,8.86,7.74,16.24-.06,24.72-1.52,1.65-3.32,3-4.9,4.64-2.18,2.23-4.46,2.07-7.41,1.4-4.07-.92-8.37-.86-12.58-1a32.59,32.59,0,0,0-4.95.56c-.19-3.58.49-7-.73-9.48s-4.29-3.91-7.12-6.28c7-8.91,8.46-19.67,5.07-31.52l11.31,2.21c-2-4-3.85-7.25-5.26-10.64-1.27-3-3.26-3.58-5.58-1.79-4.77,3.68-10.24,7-13.73,11.66-8.51,11.44-8.57,24.88-6.57,38.35,2.56,17.22,12.87,27.95,29.86,31.67,5.05,1.1,9.42.41,13.4-3.2,2.1-1.91,4.8-3.13,7.23-4.66.18.29.35.58.52.87-1.78,2.68-3.56,5.37-5.68,8.55,9,.59,15.73-2,19.43-9.33C310.4,499,313,488.12,306.17,476.63Zm-209.44-262A16.91,16.91,0,0,0,102.59,229c5.75,5.12,10.26,10.93,10.82,19.81,3.76-2.63,6.79-5,10-6.93,2.54-1.54,3.24-3.41,3-6.33-1-14.41-1.85-28.83-2.77-43.24-.56-8.79-1.19-17.57-1.84-27.1-19,5.9-35.15,15.1-47.67,30-.87,1-.94,3.71-.22,5C78.87,208.89,85.45,215.28,96.73,214.67ZM558.93,336c6.19-8.54,11-17.13,13.52-26.87.82-3.15,0-6.07-3.06-7.33-6.14-2.57-12.33-6.09-18.74-6.7-18.23-1.74-34.9-6.59-49.08-18.68-4.72-4-10.61-4.87-17.15-4.72,3.17,7.15,8,11.35,15.49,12.59,4.06.67,8.53,1.35,11.84,3.51,10,6.57,21.16,8.69,32.74,10.16,6.59.84,13.07,3,19.41,5.08,1.57.52,3.76,3.62,3.38,4.82-2.31,7.45-5.28,14.69-8.6,23.5l-9.57-11.74-8,13.4a80.29,80.29,0,0,0-7.08-5.56c-2.24-1.4-4.74-3.07-7.23-3.26-12.47-.94-23.84,12.71-21,24.83a5.12,5.12,0,0,0,.81,1.68c5,7,17.24,11.79,25.28,9.79,1-.24,2.3-.78,2.63-1.54,2.67-6.07-4.26-15.33-10.95-14.65-2.58.26-5.11,1-8.06,1.62,4.91-6.39,10.15-7.6,16.12-3.48a53.11,53.11,0,0,1,8.4,7.83c3.6,3.87,6.68,8.26,10.49,11.9,2.78,2.64,6.39,4.41,9.94,6.78l4.23-7.44c-1.93-.43-3.47-.76-5-1.13-8.21-2-14.09-6.76-17.25-14.63-.55-1.37-1-3.32-.4-4.51,2.19-4.6,4.81-9,7.38-13.66ZM279,456.77c-8,4.68-14.1,8.69-15.73,16.83-.89,4.44-.3,8.37,3.46,11.22s9.84,2.62,14.53-.46c4-2.6,6.45-6.31,4.89-11C284.34,467.88,281.62,462.7,279,456.77Z"/><path d="M401,486l11.59-15.8c1.8.75,3.55,1.4,5.24,2.18a180.49,180.49,0,0,1,46.62,31.29c5.76,5.29,6.69,9.44,2.76,16.22-5,8.69-5,16.28,2.86,23.29,1.73,1.54,2.73,3.9,4.5,6.52L486.64,540c8,22.47-1.92,46.06-22.92,59.55L426,566c-4.69-4.16-9.51-8.18-14-12.52-2.16-2.09-3.84-2.24-6.15-.44-7,5.44-14.06,10.69-21,16.15-9.09,7.15-18.08,14.44-27.13,21.64-1.23,1-2.62,1.75-3.86,2.56-19.5-15.28-19.79-47.2-.26-62.83-.94-2.11-1.39-5-3.06-6.58-8.37-8-6.58-17.8-5.41-27.55.82-6.85,2-13.68,2.29-20.55.14-2.83-1.15-5.88-2.34-8.58-2.52-5.72-5.54-11.22-8.11-16.92-5.9-13.15-16.37-21.1-29.36-26.27-4.17-1.66-8.48-3-12.54-4.89-6.61-3.08-10.61-8.41-11.22-15.7s-.61-14.74-.94-22.12c-.17-4-.48-7.93-.73-11.84-18.48-.76-28.27,11.29-29.47,34.42-2.71-2.73-5-4.78-7-7.12-8.79-10.43-17.43-21-26.22-31.42-5.86-6.94-6.85-15-5.75-23.57.15-1.17,2-2.66,3.31-3,7.68-2.17,15.39-4.28,23.2-5.91a20.07,20.07,0,0,1,8.8.52c2.72.7,5.19,2.42,8.85,4.23,5.14-8.67,10.39-17.22,15.3-26,2-3.61.72-7.16-1.74-10.3-1.17-1.5-2.19-3.11-3.83-5.47,7.94-3.17,15.41-6.31,23-9.12a94.84,94.84,0,0,1,13.36-4c6-1.27,8.3,1.59,6.07,7.34-2.71,7-6.05,13.82-8.55,20.92-6.37,18.07-10.09,36.5-6.4,55.78,4.09,21.34,16.44,37.2,33.89,49,14.61,9.88,30.06,18.5,45.14,27.69,5.21,3.18,10.56,6.16,15.48,9.74,1.48,1.08,2.79,4.16,2.34,5.82C388.53,471.79,389.37,473.69,401,486Z"/><path d="M387.35,680.17c-11.58,8.75-16.74,16-11.72,28.18-10.37-3.12-19.22-7.11-23.31-17.69-2.47-6.42-4.76-13-11-18.08-2.82,2.52-5.45,5.29-8.51,7.44-1.59,1.11-4.39,2.15-5.86,1.49-10.36-4.67-20.52-9.8-31.69-15.24,5.24-6.61,10-12.55,14.93-18.83,2.68,1.6,5,2.93,7.26,4.34,39.51,24.55,82.3,30.77,127.36,21.52,15.8-3.24,31.26-8.43,46.55-13.65,6.44-2.2,11.38-2.09,16.3,2.45,1.39,1.28,3,2.31,4.69,3.58-5.87,7.84-13.93,11.71-22.43,14.77-1,.36-2.85-.87-4-1.75-3.66-2.79-7.18-5.77-10.76-8.67a27.78,27.78,0,0,0-9.31,16.76c-2.2,13.11-11.4,18.08-22.83,21.21,0-.48-.23-1-.05-1.32,4.61-7.28,1.9-12.52-4.26-17.33-3.22-2.52-5.73-6-9-9.45-4.55,7.44-8.54,14-12.66,20.69,2.39,3.64,4.54,7.43,7.2,10.81,2.16,2.76,1.31,4.47-.88,6.48-5.41,5-11.83,6.71-18.76,5-5-1.21-9.79-3.61-15.56-5.82,3.57-4.88,6.28-9,9.42-12.75,2-2.37,2.18-4.26.45-6.77C395,691.92,391.3,686.14,387.35,680.17Z"/><path d="M429.84,224l-36.46,8.54c2.36-3.48,4.38-5.75,5.58-8.4,2.14-4.75,5.11-9.64,5.42-14.61,1.17-19.22,1.49-38.5,2-57.75.12-5.07-1.52-9.49-6.49-12a15.32,15.32,0,0,1-2.7-2.38c7-10.62,16.53-15.94,30.11-16.46V167.8c3-.31,4.92-.44,6.77-.7,3.18-.45,6.33-1.17,9.53-1.46,11.42-1,15.05,1.78,15.8,13.23.64,9.77.56,19.58.75,29.38.18,8.7-1.91,17.89,6.67,24.67l-32.71,1.63c.8-1.68,1.92-4,3-6.34,6.14-13.21,5.44-26.85,1.76-40.39-.81-3-4.21-5.25-6.42-7.85-2.05,2.52-4.81,4.75-6,7.63a73,73,0,0,0-4.21,15.25C420.87,210.86,422.71,218.14,429.84,224Z"/><path d="M628.18,198.69,658,191.61c.52,8,5.63,9.48,12.2,9.18,2-.1,4.09.71,6.07,1.32,8.53,2.62,12.29,7.81,11.16,16.54-.81,6.33-2.46,12.57-3.87,18.82-1.56,6.88-3.58,13.67-4.84,20.61s-1.79,14-2.73,21.63l-31.37-7.6c1.59-2.17,2.65-4.1,4.14-5.58,14.86-14.81,19.26-31.08,13.77-51.38-5.7-.59-10.48,3.45-12.84,10.43-4.25,12.58-9.86,24.87-6.57,38.53a31.58,31.58,0,0,1-25.31-4.54c8.68-13.33,10.45-28.85,13.7-44A20.53,20.53,0,0,0,628.18,198.69Z"/><path d="M355.38,175.13c-7.2,8.51-5.43,18.73-7.64,27.89-4.95,20.5-13.61,38.57-30,52.54-10.23,8.75-22.35,12.2-35.18,14.15-2.67.41-5.37.7-8.9,1.14,4.16-10.08,10.36-17.74,18-24.84,1.32,1.07,2.5,2.06,3.71,3,3.1,2.43,6.4,2.91,9.83.81a74.77,74.77,0,0,0,8.43-5.55c5.6-4.6,6.07-8.76,1.81-14.56-10.36-14.12-16-30.23-20.05-47a26.36,26.36,0,0,1-.29-2.69c10.66,1,19.13-4.64,28.9-10.41-3.79,16.27-6.5,30.94,6.81,43.22,4.08-9.24,5.65-18.3,4.14-27.72-.74-4.63.16-7.12,5.51-7.41C345.21,177.44,349.89,176.12,355.38,175.13Z"/><path d="M246.55,525.87l-16.82,13.76c-5.12-7.37-9.82-13.88-14.17-20.6a6.45,6.45,0,0,1-.26-5.14,89.66,89.66,0,0,1,6.21-12.49c3.15-5.13,2.7-10,.11-15-2-3.85-4.11-7.63-6.13-11.47a16.45,16.45,0,0,1,.3-16.95c3.55-6.11,6.78-12.41,10.54-18.38,1.86-2.94,1.53-5.13-.2-7.84-3.8-6-7.59-11.94-10.9-18.17a9.27,9.27,0,0,1-.49-6.93c2.81-7.15,6.21-14.06,10.12-22.64l27.7,33.18c-14.19,15.8-22.36,33.5-24.42,53.7C226.05,491.29,230.92,509.76,246.55,525.87Z"/><path d="M518.54,206.48c5.49,15.8-5.11,30.55-20.66,31.41s-24.3-6.77-25.76-23.15a84.07,84.07,0,0,1,3.72-34.7c4.18-12.4,13-19,24.52-18.32,10.87.66,19.58,9.33,21.81,21.69,1.62,9,1.41,9.4-6.73,13.83-6.91,3.75-13.78,7.57-20.7,11.29-5,2.66-3.1,6.86-2.33,10.62.85,4.21,2.74,8,7.07,9.66.76.29,2.46-.68,3.12-1.54,2.51-3.3,4.66-6.89,7.17-10.21S515.13,210.57,518.54,206.48Zm-27.22-4.67c2.8-.64,5-1,7.17-1.67,9.2-3,12.63-9.4,8.67-17.26-1.27-2.52-4.47-5.78-6.67-5.69-2.63.1-6.11,2.91-7.48,5.48C489.93,188.44,489.92,194.92,491.32,201.81Z"/><path d="M566.76,197.12c-1.72-3.7-3.18-6.84-4.65-10l-2.22.2c-1.25,4.82-3.09,9.57-3.62,14.47-.87,8.11-1.57,16.37-1,24.48.3,4.55,3.23,8.93,5.16,13.86-11.33,2.36-23.33,2.1-35.22-2.64.28-.73.33-1.21.51-1.27,9-2.66,9.74-10,10.12-17.61.34-6.89.84-13.77,1.19-20.66.33-6.68.27-13.29-6.07-18.34l24.66-16.84c4.83,5.31,10.93,6.24,17.62,6A11,11,0,0,1,583.85,175c2.18,4.25.62,8.18-1.82,11.74C578.24,192.27,572.78,195.42,566.76,197.12Z"/><path d="M297.5,234.83l-35.44,9.62c9.19-12.3,6.41-25.11,6-37.35-.46-14.57-2-29.13-3.55-43.63-.34-3.23-2.71-6.23-4.5-10.12,5.46-7.84,13.48-13.64,24.79-16.12.27,6.72.68,13,.74,19.35.15,16.38-.1,32.77.29,49.14C286.13,217.76,289,224.25,297.5,234.83Z"/><path d="M383.53,218.91l12.28-10.26c-1.66,12.29-13.24,23.31-26.48,26.62-6.12-4.83-7.89-10.67-4.2-17.8,1.34-2.56,1-4.58-1.05-6.94a12.09,12.09,0,0,1-2.63-6.94c-.36-10.44-.36-20.89-.3-31.33,0-1.38,1.07-2.78,1.78-4.1.88-1.64,1.91-3.2,3-4.95l-10.73-3.72c9.33-4.62,14.19-11.73,18.41-19.6,2.05-3.83,6.31-4.52,11.11-4.22L382.61,148a59.29,59.29,0,0,0,6.14,1.12c2.95.24,5,1.23,5,4.56,0,3.11,0,6.91-4,7.09-6.32.28-6.81,4.2-7.13,8.94C381.57,185.87,381.36,202,383.53,218.91Z"/><path d="M621.46,184.76c-1.93,6.49-2.81,12.65-5.52,17.85-6.32,12.13-7.11,25.54-9.93,38.46-.57,2.62,1,5.79,1.89,8.63a25,25,0,0,0,2.28,4.25c-7.54.8-22-3.24-32.15-8.9,6.75-17.29,14.78-34.42,13.52-53.55Z"/><path d="M387.15,571.64l20.47-15.7c5.42,4.81,10.89,9.45,16,14.44.77.76.5,3.61-.31,4.8-3.87,5.7-8,11.23-12.22,16.68-2.3,3-2.5,5.54-.07,8.56,3,3.75,5.75,7.71,8.51,11.65,1.44,2.06,2.66,4.27,4.26,6.86-11.57,2.63-22.38,2.79-34-.95,2.36-5.07,4.29-9.92,6.81-14.44,2.88-5.15,2.74-9.81-.29-14.85C393.1,583.35,390.38,577.71,387.15,571.64Z"/><path d="M533.07,470.38,511.7,447.07l14.49-13.63c5.41,7.83,10.68,15.37,15.79,23a3.32,3.32,0,0,1-.42,2.93C538.94,463,536.13,466.45,533.07,470.38Z"/><path d="M612,153.43c3.05,5.91,5.81,11.24,8.76,17-3.12,2.53-6.06,4.95-9,7.32-3.27,2.61-5.78,2.18-8.27-1.41-4.89-7-4.16-13,2.87-18.83C607.93,156.17,609.7,155.07,612,153.43Z"/><path d="M521.92,312.21c-7,0-13.78.32-20.49-.08-7.67-.46-11.77-4.24-13.9-11.76C500,291,520.74,297,521.92,312.21Z"/></svg>