<svg id="Ebene_1" data-name="Ebene 1" xmlns="http://www.w3.org/2000/svg" viewBox="0 0 800 800"><defs><style>.cls-1{fill:#b99f2d;}.cls-2{fill:#F1DE16;}</style></defs><polygon class="cls-1" points="713.95 504.32 706.19 422.44 717.07 378.3 719.12 356.77 678.24 320.57 636.29 297.82 646.17 201.51 625.23 163.09 197.21 630.73 221.23 677.58 386.41 742.52 573 669.39 637.7 629.46 637.7 463.56 665.28 467.14 669.34 513.24 662.2 538.71 691.39 544.18 712.24 529.1 713.95 504.32"/><polygon class="cls-2" points="111.86 582.23 180.29 597.74 197.21 630.73 625.23 163.09 584.02 87.47 339.47 87.47 253.45 87.47 194.41 144.95 172.19 316.42 172.19 378.3 130.04 393.4 109.99 394.23 109.99 476.3 81.85 485.84 94.23 513.24 108.14 521.08 111.86 582.23"/><path d="M647.69,469.87c0,11.49-.49,22.29.1,33,1.31,23.9,3.31,47.75,4.77,71.63a189.11,189.11,0,0,1-9.24,71.11c-9.82,29.92-30,49.56-59.53,60.16-17.66,6.34-35.91,10-54.27,13.27-23.46,4.21-46.44,9.81-67.86,20.87-17.79,9.18-32.11,22.21-44.46,37.69q-6.63,8.32-13.29,16.64c-.88,1.1-1.83,2.14-2.71,3.17-7.51-8.91-14.74-17.58-22.07-26.17-14.59-17.12-33.06-28.2-54.39-34.76-19.93-6.14-40.08-11.63-59.83-18.33-31.17-10.58-59.11-26.65-81.39-51.44-16.94-18.86-26.42-41.14-30.13-66.05-.09-.65-.11-1.31-.22-2-.21-1.3-.47-2.58-.81-4.37H101.53c2.06-22.18,4.06-43.81,6.06-65.41-5-.55-9.77-.7-14.34-1.61-13.64-2.73-20.08-12.58-17-26.13,3.34-14.92,11.15-26.87,24.61-34.58,2.92-1.67,3.76-3.6,3.28-6.68a71.24,71.24,0,0,1-1.24-10.55c0-6-.32-12.11.89-17.89,1.79-8.58.07-16.71-1.21-25-.61-4-1-8-1.59-12.27,3.37,0,6.22.07,9,0,6.69-.2,13.41-.14,20-.82,7.39-.75,13.12-4.87,16.86-11.13,8.58-14.37,22.3-20.11,37.71-23.09,15.87-3.08,31.89-3,47.92-1.55,3.46.31,5.49-.72,6.68-3.85.33-.85.86-1.63,1.27-2.45,4.32-8.52,4.06-8.71-2.81-15.23-6.2-5.87-11.88-12.28-17.89-18.35-2.47-2.49-5.23-4.7-7.86-7l-1.06.4c1.2,12.4,2.41,24.8,3.56,36.66L164,360.51c-12.65-60.16-23.14-120.09-29.1-181.07,19.89-4.12,34.24-15,42.2-33.47,7.89-18.34,5.62-36.14-4.11-53.6C222.63,70.16,274.21,55,327.89,45.4c-.94-4.34-1.85-8.49-2.82-13,33.24,2.81,63.5-2,86.18-29.85C434.87,25.09,463.3,34.19,496.17,32c-.33,3.42-.49,6.52-1,9.56-.44,2.8.51,3.7,3.34,4.34,32.4,7.23,64.84,14.33,97.1,22.18a192.44,192.44,0,0,1,44.25,16.36c2.41,1.26,4.68,2.79,6.72,4-2.48,8.09-5.29,15.61-7.07,23.37-6.17,26.87,2.2,49.15,22.19,67.53a14.9,14.9,0,0,0,2.38,2.06c5.3,3.09,6.22,7.36,5.47,13.4-4.16,33.52-7.82,67.09-11.63,100.65-.54,4.81-1,9.64-1.4,14.24,7.42,3.68,14.73,6.95,21.7,10.85,16.23,9.07,30.74,20.13,40.88,36.2,5,7.92,6.71,16.38,4.41,25.26-2,7.71-3.95,15.75-7.76,22.61-9.38,16.83-10.07,34.34-7.27,52.75,2.37,15.56,4.17,31.24,5.45,46.93.89,10.89.15,21.85-4.2,32.16-4.22,10-12,15-22.73,15.35s-20.09-2.8-24.82-13.12c-2-4.42-2.44-9.9-2.39-14.89.15-15.24.86-30.48,1.42-45.71.09-2.32-.68-3.6-3-4.32C654.81,472.68,651.43,471.27,647.69,469.87ZM303.78,383.53c-1.13.48-1.71.77-2.31,1-17.35,6-34.67,12.18-52.12,17.93-3.65,1.2-5,3-5.16,6.57-.71,13.52-2,27-2.28,40.55-.75,33.66-1.08,67.32-1.57,101a16.92,16.92,0,0,0,.23,2c.89-.21,1.51-.31,2.1-.51,24.72-8.41,49.38-17,74.16-25.23,49.94-16.6,100-32.91,151.34-44.74,29.78-6.86,59.9-12.36,90-17.73,22.79-4.06,45.86-6.18,69.09-5,16.81.87,33.32,3.43,47.63,13.09,6.72,4.54,12.72,10.15,19,15.28l10.88,8.85c0-1.71,0-2.2,0-2.69-1.36-16.76-2.57-33.54-4.13-50.28-1.23-13.19-.32-26,5.53-38.09,2.17-4.49,4.14-9.08,6.06-13.69,8.34-20,6.24-32-9.61-46.32-25.53-23.05-55.37-36.26-90.1-37.66-35.92-1.43-71,4.52-105.79,12.32-49.73,11.15-98.33,26.34-146.93,41.51-4.45,1.39-8,2-10.92-2.36a4.1,4.1,0,0,0-.67.28l4.63,7.34c-10.83,4.73-15.06-2.25-19.24-9.76a25,25,0,0,0,1.92,7.54c1.35,3,1.56,5.66-1,7.87a6.9,6.9,0,0,1-8.44.77c-3.93-2.29-6.75-5.38-7.05-10.23-.12-1.89-.51-3.76-.86-6.18-3,5.29-2.66,9,1,13.91,2.38,3.21,2.17,4.91-.89,7.29-5,3.91-10.6,2.84-14.39-2.92-6.61-10-6.24-30.32,5.2-39.39,9.31-7.39,20.23-10.52,31.61-12.13,12.09-1.7,24.29-2.62,36.42-4.07,2.93-.35,5.78-1.43,9.6-2.42-1.47-.9-1.78-1.22-2.12-1.27-2.6-.38-5.2-.8-7.81-1-15.8-1.33-31.16,1.48-46.4,5.18-6.36,1.54-12.9,2.81-18.92,5.26-11,4.5-17.6,18-16.51,31.48A60.8,60.8,0,0,0,303.78,383.53ZM280.66,191.94c-3.88-3.78-7.6-6.95-10.78-10.6C258.82,168.66,248,155.8,237,143.06a43.39,43.39,0,0,0-4.16-3.73c-3.22,14.11-6.43,27.5-9.19,41a10.32,10.32,0,0,0,1.66,7.59,14.32,14.32,0,0,1,3.21,11.33c-.37,3-.75,6-1,9-.54,6.75-1,13.51-1.51,20.38-7.48-2.1-9.18-10.92-16.42-13.52-.65,11.66-1.25,22.67-1.89,33.68a34.25,34.25,0,0,0,7.42,23.16c3.64,4.79,8,9.06,11.82,13.72,7,8.53,13.84,17.21,20.85,25.75,2,2.47,4.12,5.1,8.08,5,2.44-6.8-1.07-12-3.92-17.47-5.25-10.11-11.08-20-15.17-30.61-10.05-26-9.59-52.68-3.66-79.54.51-2.31,1.67-3,3.88-2.66,3.63.53,7.41.49,10.91,1.46,9.22,2.56,18.28,5.68,27.49,8.24,2.73.75,6.54,1.6,8.53.33,11.14-7.1,23.28-11.51,35.88-14.94a11.06,11.06,0,0,0,7.63-6.79c2.62-6.16,5.46-12.24,8.06-18.41,1.35-3.2,3.59-4.27,6.89-3.79,4.19.62,6.95,3,7.5,7.4s.5,8.65.8,13c.58,8,4.94,12.77,12.26,13.22-.16-1.69-.31-3.37-.49-5s-.41-3.32-.62-5c9,12.16,16.74,24.72,22.16,38.54-10.23,6.32-10.23,6.32-10.72,9.12a42.45,42.45,0,0,1,6.2-1.27,97.16,97.16,0,0,1,10.52.07,3.19,3.19,0,0,1,2.42,1.52c1.25,3.69,2.83,7.38-.72,11-1,1.05-1.73,3.71-1.13,4.91,2.4,4.81,7.31,5.48,11.61,2,.88-.71,1.73-1.47,2.42-2,14.2,11.29,32.87,12.16,47.83,22.55-.24-6.54-.25-12.32,4.76-16.69,3.46,1.85,4.78,5,5.33,8.37s.56,6.91.78,10.08c3-.7,5.57-1.52,8.23-1.88s4.9,1,5.16,3.71a7.81,7.81,0,0,1-1.67,5.59c-2,2.07-4.08.3-5.77-1.27-2.22-2.07-4.32-2.07-6.62.43.94.87,1.78,1.64,2.61,2.43,12.71,12.18,25.64,24.15,38,36.66,4.49,4.54,8.72,5.73,14.76,4.22,9.53-2.38,19.17-4.75,28.91-5.85,19.58-2.2,39.25-3.63,58.9-5.15,3-.23,4-1.2,4.46-4,4.31-26.74,8.11-53.52,9.93-80.57.39-5.81-.69-10.37-4.11-14.9-15.79-21-26.87-44.14-32.42-69.86a10,10,0,0,0-6.15-7.66c-9-3.59-17.88-7.69-27.17-10.35a450.62,450.62,0,0,0-87.89-15.68c-13.83-1.12-27.82-.85-41.7-.3-8,.32-8,1.29-8.12,9.28q-.57,58.59-1.21,117.17c-.05,3.68-.54,7.37-.82,11.05l-1.21.53-2-2.91c-7.05-10.11-14.3-20.09-21.11-30.36-10.16-15.32-19.79-31-30.12-46.19-2.79-4.11-7-7.45-11.11-10.42s-8-2-11.18,1.81A73.9,73.9,0,0,0,329,157c-.79-.78-1.56-1.49-2.27-2.26q-19.62-21.35-39.27-42.66c-.82-.89-2.53-1.93-3.43-1.65-9.57,3.08-19.06,6.4-29.66,10l45.43,58.94Zm55.7,445.73c.6,3.94,1.26,8.29,1.94,12.79,1.75-.54,3.51-1.6,5.19-1.48,1.85.14,4.33.9,5.21,2.26.76,1.16.27,4.07-.76,5.27-1.84,2.15-3.62.13-5.38-1.08-.92-.63-2.73-1.07-3.48-.58a4.56,4.56,0,0,0-1.68,3.46,52.34,52.34,0,0,0,1.28,7.31c-5,3.57-5,3.57-10.51.26a50.41,50.41,0,0,0,1.14-7c.05-1.25-.52-3.11-1.42-3.61s-2.78,0-3.8.68c-2,1.33-4.15,2.26-5.55.22-1.05-1.52-1.6-4.54-.76-5.88s3.7-1.6,5.67-1.59c1.64,0,3.28,1.11,4.67,1.63l1.95-14-21.8-3.21c-.53-5.43,3-8.55,7-11.82-6.85-.22-6.37,8.77-12.31,8.85-3.61-3.85-1.91-7.89-.31-12.47l-6.55,7.48-.95-.59c.43-3,.66-6,1.34-8.91,1-4.35,1.4-8.37-1.31-12.46a6.29,6.29,0,0,1,.13-5.83c.94-1.29,3.63-1.77,5.55-1.76,2.12,0,4.23,1,6.7,1.64.62-6.55.87-13,5.2-19.76l8.27,11.53a32,32,0,0,0,14.57-8.82c3.21-3.51,5-7.65,3.28-12.31-3.39-9.17-7.12-18.21-10.77-27.45-6.42,2-12.56,3.86-18.69,5.78-21.78,6.8-43.55,13.67-65.37,20.36-2.72.84-3.86,2.07-3.8,4.91.08,3.94-.38,7.9-.23,11.83.12,3.34-1.31,5.22-4.4,5.89-7.49,1.63-15,3.16-23.06,4.85.58,3.47,1.13,7.86,2,12.17,6.05,28.45,24.27,46.33,50.12,57.61,17.66,7.7,36.33,12,55,16.43,25.4,6,51.47,10.36,71.71,29.16,1.22,1.13,3.31,1.33,5.16,2V611.86l-1-.56c-2.53,3.08-5.21,6.05-7.55,9.27-5.38,7.38-12.44,12.09-21.46,13.39C356.45,635.42,346.29,636.46,336.36,637.67ZM218,414.12c-.86,5.41-2.07,10.17-2.28,15-.73,16.53-1,33.08-1.67,49.62-.29,7.35.77,13.61,7.82,18,4,2.48,3.52,5.34-.18,8.57-7.11,6.2-10,13.83-6.89,23,1.45,4.31,3.7,8.36,5.7,12.48,1.82,3.75,3.78,7.43,5.31,10.42-8.08,3.07-15.89,5.65-23.34,9-5.73,2.57-10.92,6.29-16.53,9.16-2.9,1.48-6.18,2.21-9.29,3.28l-.86-1.1c1.9-4.28,3.89-8.54,5.68-12.87,1.55-3.72,3.81-7.46,4.13-11.33,1-12.67.94-25.45,2.08-38.11.7-7.74-3.2-11-9.41-13.54-12.21-5-17.9-1.49-17.74,11.73.09,7.59,1.57,15.16,1.73,22.75.15,7.07,1.57,13.49,5.81,19.23,2.12,2.86,1.5,5-1.95,6.33-7.48,2.87-15,5.63-22.36,8.81-6.41,2.78-12.59,6.08-18.87,9.15l.19,1.8c3.42,1.06,6.77,2.52,10.26,3.11,24.25,4,48.68,4.39,73.14,2.92,6-.36,11.89-1.88,17.81-3,2.39-.46,3.53-2,3.88-4.63,2.6-19.51,2.69-39.11,1.82-58.68-1-22.35-1.18-44.63-.23-67,.49-11.82-1.51-23.77-2.72-35.63-.5-4.91-3.77-7.9-8.59-9.14-3.14-.8-6.24-1.74-9.28-2.6.27-4.82.51-9.22.76-13.77-5.73,1.56-7.67,4.09-8,10-.42,6.65-2.19,8.26-8.72,8.32-2.38,0-3.6-.78-3.09-3.18.83-3.83,1.84-7.63,2.8-11.43.68-2.74,1.4-5.46,2.15-8.33-8.14.07-9.57,2.36-14.08,21.57-7.9.66-9.63-1.33-7.64-8.6,1-3.55,1.77-7.14,2.71-11-6.34.49-8.61,2.76-9.68,7.87a73.3,73.3,0,0,1-3.24,10,2.69,2.69,0,0,1-2,1.35c-6.19.5-8.55-2.63-6.31-8.24a16.15,16.15,0,0,0,1.43-3.65,55,55,0,0,0,.07-6.31c-4.48.6-6.56,2.89-7.55,6.33a26.7,26.7,0,0,0-1.25,5c-.3,3.72-2.17,5-5.84,5.05-8.27.16-16.54.8-24.82,1.07-2.66.08-3.77.9-4.34,3.73-3.81,18.92-2.85,37.93-1.46,56.95a3.69,3.69,0,0,0,2,2.66c4.64,1.37,9.36,2.42,14.56,3.71.52-10.73,3-21.19-2.87-31a8.68,8.68,0,0,1-1.29-4.48c0-1.22.78-3.1,1.73-3.52,11.63-5.14,23.31-10.18,35.09-15,2.75-1.12,5.9-1.26,9.88-2-1.35,2.27-1.86,3.69-2.83,4.66-5.22,5.21-6.56,11.8-6.85,18.75-.4,9.59-.82,19.18-.93,28.77a23,23,0,0,0,1.58,8.44c2.78,7,10.55,10.23,20.33,9.07,2.39-.28,3.34-1.16,3.84-3.47,3.28-15.17,2.38-29.69-5.55-43.48-3.58-6.24-3.6-4.74,2-9.31C193.67,419.17,205,414.94,218,414.12ZM281.39,231.4a23.24,23.24,0,0,1,12.28,16.1c1.88,8.7,2.82,17.61,4.09,26.44,1.85,12.78,8.31,22,20.72,26.36a74.35,74.35,0,0,0,33,3.95c12.55-1.36,25-2.58,37.5,1.21,16.08,4.87,30.4-3.35,35.24-19.51a64,64,0,0,0,1.32-7.36c-2.92,3.1-4.8,6.52-6.92,9.78-5,7.79-12.29,12-21.54,11.43-12-.68-23.07-3.9-30.24-14.81-4.91-7.45-11.85-10.83-20.79-10.37a20.92,20.92,0,0,1-7.4-.81c-2.81-.9-5.38-2.56-8.92-4.32,4.82-4.17,8.59-7.41,12.34-10.68,8.66-7.55,8.72-16.16-.35-23.16-17.17-13.25-35.63-23.05-58.38-22-11.19.52-21.16-2.52-28-12.74-3.79-5.64-10.26-6.8-17.19-6.73-.22,3.73-.43,7.24-.63,10.75-1.28,22.13,1,43.79,8.43,64.79,3.71,10.52,9.31,19.69,18.27,26.56a29.55,29.55,0,0,0,15.66,6.41c-1.5-5.09-2-9.88-4.24-13.61-2.78-4.62-6.83-8.55-10.65-12.45-7.55-7.7-8-15.14-1.24-23.39C269.52,246.14,275.26,239,281.39,231.4ZM560.45,535.67,562,536c7.58-4.18,15.11-8.46,22.75-12.52a168.5,168.5,0,0,1,15.53-7.56c3.05-1.24,6.69-1.27,9.22,1.42s2.41,6.4.82,9.62c-5.87,11.87-11.12,24.15-18.1,35.34-8,12.9-17.88,24.67-26.57,37.18-14.9,21.45-34.91,34.33-60.91,38-8.38,1.2-16.56,3.77-24.88,5.4-2.34.46-4.9,0-7.33-.35-2.2-.29-3.06-1.87-2.67-4,.55-3,1.2-6,1.81-9A31.49,31.49,0,0,0,466.8,637c-.45.82-1,2.07-1.68,2.19-3.06.56-6.19.8-10.18,1.25.3-3.57.19-6.7.91-9.64s2.25-5.67,3.58-8.87c-3.85,2.14-5,5.58-6.16,9.06-2.06,6.27-4.12,7.51-11.33,6.52V625.91l-4,8.45L432,630c.4,6.16,3.07,10.49,8.74,12.11a91,91,0,0,0,14.67,2.77c15.83,1.78,29.82,7,40.12,19.94,3.48,4.36,8.12,5.6,13.46,3.86s10.54-3.26,15.65-5.29c4.17-1.67,8.1-4,12-5.9l-14.45-17.86c7.94-3.64,15-6.87,22-10.08,3.79-1.74,7.32-1.29,10.83,1,5.85,3.78,11.93,7.22,17.68,11.12,2.51,1.7,4.39,1.42,6.73,0,7.35-4.44,11-11.45,13.45-19.24,4.17-13.37,4-27.18,4.16-41a40.25,40.25,0,0,1,2.89-14.46c2.51-6.16,6.5-11.7,9.31-17.76,3.47-7.47,7.24-15,9.31-22.87,3.29-12.56-5.11-20.67-17.56-17.28-6.51,1.77-12.73,4.8-18.9,7.64-4,1.83-7.64,4.35-11.72,6.73-.53-16.61-1-32.71-1.54-48.85-5.91.5-7.84,2.34-8.1,7.23-.15,2.89-.27,5.79-.27,8.68Q560.42,513,560.45,535.67ZM405.17,216.15l1.57-.4c.1-15.75.36-31.5.16-47.25,0-2.65-1.68-5.53-3.23-7.87C392,143,380.21,125.43,368.17,108a18.18,18.18,0,0,0-7.87-6.18c-12.08-4.74-23.88-1.35-36.27,1.72C351.28,141.53,375.91,180.51,405.17,216.15Zm58.61,356.16c2.14-.12,4.39-.09,6.6-.39,5.57-.73,6.11-1.78,2.91-6.29-5.94-8.34-11.78-16.78-18.14-24.8q-9.91-12.48-20.81-24.18c-5.79-6.24-13.66-8.79-21.64-6.23-12.32,4-24.25,9.18-36.3,14a3.55,3.55,0,0,0-1.78,2.58c-.26,6.07,3.75,10.55,9.76,10.45,6.86-.12,12.23,2.73,16.68,7.52,2.85,3.06,5,6.76,8,9.71,3.18,3.17,6.47,7,10.47,8.46A146.64,146.64,0,0,0,463.78,572.31ZM403.3,617.68c0,12.36-.05,23.51.07,34.66a4.94,4.94,0,0,0,1.58,3.23c11.31,10,23,19.57,33.95,29.88,4.69,4.4,8.51,6.67,14.75,3.19,4.21-2.34,9.11-3.42,14.13-5.22C446.76,660.82,427.34,637.73,403.3,617.68Zm-8.62-343.92a76.62,76.62,0,0,0,8.63-2.26c4.29-1.67,4.87-3.26,1.86-6.6-5.18-5.73-10.67-11.19-16.23-16.56-8.48-8.19-17.77-15.65-25.47-24.5-4.91-5.64-10.1-10.23-16.69-13.28-5.35-2.47-10.86-4.64-16.42-6.59-3.35-1.17-6.93-1.66-10.41-2.46-.24.42-.49.84-.74,1.26,2.53,2.54,4.78,5.45,7.64,7.53A158.92,158.92,0,0,0,343.37,221c12.76,7,21.76,16.87,26.58,30.8,2.64,7.62,5.47,15.39,11.35,21.41,3.41,3.49,7.27,6.18,12.39,7.25C394.09,277.78,394.41,275.6,394.68,273.76ZM114.29,575.08c1.31-.83,2.19-1.31,3-1.91,10.12-7.79,14.58-18.67,16.35-30.82,2.79-19.15-.28-38-4.15-56.64-.2-1-1.45-2.37-2.3-2.43-3.75-.26-7.54-.11-11.61-.11-.23,2-.94,4.22-.6,6.31s1.24,4.46,2.74,5.64c6.11,4.8,7.47,9.92,4,16.84a113.86,113.86,0,0,0-4.67,10.4C110.57,539.38,111.06,556.8,114.29,575.08Zm582-75.85c-.78,6.52-1.21,12.78-2.37,18.91-1.07,5.7-4.35,9.88-10.2,11.27,0-3.55.16-6.91-.1-10.24-.08-1-1.17-2.71-2-2.85-7.14-1.15-13.93,2.11-13.14,10.64a17.06,17.06,0,0,0,12,15.1,19.56,19.56,0,0,0,21-6.24C709.52,525.81,707,507.1,696.28,499.23ZM669.34,478v35.29c6.63-5.3,13.16-2.22,19.86-.62.8-6.59,1.6-12.56,2.19-18.55a3.65,3.65,0,0,0-1.32-2.86C683.51,486.88,676.84,482.71,669.34,478ZM423.2,601.49c3.76,3.43,7.48,6.89,11.31,10.23a2.5,2.5,0,0,0,2.34.26c5.52-4,10.53-8.48,13.4-14.93C442.22,593.51,428.83,595.67,423.2,601.49Zm140.23-32c9.7-6.7,16.19-15.09,19.43-26.37C568.94,546.87,561.51,556.91,563.43,569.48ZM108.14,485.84c-8.91,1.66-13.79,7.53-13.9,15.83-.07,4.72.76,5.77,5.31,5.06a7.07,7.07,0,0,0,4.33-3.49,35.94,35.94,0,0,0,2.55-8.19C107.12,492.11,107.54,489.11,108.14,485.84Z"/><path d="M377.3,386.5c-1.94.36-3.73.76-5.53,1-6,.9-7.14,2-7.55,8-.17,2.46,0,4.94,0,7.65h13.13a12.37,12.37,0,0,1-5.79,11c-5.79,3.85-7.49,9.06-7.56,15.81-.15,16-.81,32.08-1.61,48.1a54.48,54.48,0,0,1-2.58,13.47c-3.37,10.75-10.51,15.19-22.13,14.14-1.17-3.37-.79-5.71,2.7-8.12a12.31,12.31,0,0,0,4.65-8c1.05-11.9,1.45-23.86,1.94-35.8.31-7.36.29-14.73.5-22.09a18.75,18.75,0,0,0-3.94-12.5,4.51,4.51,0,0,1-.45-3.95c3.32-6.49,3.69-13.3,2.77-21.78l-6.57,6.72c-4.85-.61-10.69-5-15.36.35-3.58,4.09-1.88,9.38-.67,14.44l16-2c.12,5.29-1.63,9.47-5.73,12.1-6.52,4.2-8.51,9.89-8.08,17.45.83,14.57,1.05,29.17,1.34,43.76a58.48,58.48,0,0,1-.87,12.55c-2.75,13.79-13.54,21.39-28.18,20.08a7.44,7.44,0,0,1,3.41-8.78c7.16-4.36,8.62-10.88,8.5-18.6-.26-15.38-.1-30.77-.11-46.16V441.1c-5.38.14-9.89,3.59-10,8.64-.38,11.66-.05,23.35-.3,35a16.88,16.88,0,0,1-2.17,7.53c-1.39,2.47-3.87,4.31-5.48,6.69-2.12,3.14-4.5,3.22-7.12,1-3-2.47-5.43-2.09-8.12.49a32.87,32.87,0,0,1-5.52,3.79c-7,4.38-14.4.49-14.9-7.89-.83-14-1.5-28.09-2.38-42.12-.16-2.43.4-4.15,2.62-5.1,4.6-2,9.24-3.86,14.23-5.93.69,15-3.08,29.42,5.23,42.82A15.64,15.64,0,0,0,282.65,472c-.25-8.78-1.07-17.57-2-26.31-.41-3.71.28-5.67,4.13-6.88a136.59,136.59,0,0,0,14.91-6.13c7.14-3.23,9.93-9,10.29-16.71a97.37,97.37,0,0,1,2.89-18.14c.74-3.08,2.63-6,4.49-8.68,6-8.55,15.18-11.62,25.36-8.13,3.25,1.11,4.73.21,7-1.9a53.25,53.25,0,0,1,11.27-8.4c5.79-3.07,11.56-1.94,16.31,2.6A6.74,6.74,0,0,1,379,378C378.79,380.83,377.9,383.63,377.3,386.5Z"/><path d="M459.55,476.3a6.58,6.58,0,0,1,.38-1.84c4.36-7.78,4.56-16.22,4.53-24.85-.07-18.27.43-36.55.37-54.82a45.34,45.34,0,0,0-2.13-12.67c-1.15-3.84-.84-6.91,2-9.72,4.48-4.43,8.88-8.94,13.44-13.28a5.76,5.76,0,0,1,3.43-1.39c5.86-.32,11.73-.55,17.59-.53,1.39,0,3.41.67,4.08,1.72,8.28,12.86,12.31,26.91,10.89,42.27-1,10.92-6.12,16.7-16.76,19.66-3.78,1-7.55,2.22-11.25,3.53-1,.35-2.34,1.34-2.44,2.16-.93,7.57-2,15.27,1.35,22.49a18.09,18.09,0,0,0,5.5,6.41c2.55,1.94,2.81,3.9.87,5.89a45.45,45.45,0,0,1-7.81,6.51C476.92,472.18,465.9,475.91,459.55,476.3Zm24.77-58.48c5-3.2,9.23-5.86,13.38-8.66a2.68,2.68,0,0,0,.58-2.13c-1.06-9.07-1.87-18.2-3.47-27.19-.68-3.79-2.48-7.72-7.09-9.65C483.59,385.66,483.73,401.1,484.32,417.82Z"/><path d="M652.66,344.56v17c4,.5,8.24.87,12.45,1.63,5.63,1,11,2.81,14.85,7.38,4.33,5.15,4.26,14-.06,21.05-6.36-1.73-11.41-4.56-11.34-12.33,0-2.81-1.65-4.29-4.61-4-.91.08-1.84,0-2.75,0-10.62.43-10.65.8-10.78,11.2-.19,14.83-.52,29.68-1.55,44.46-.35,5-2.44,10.21-4.75,14.81-3.12,6.23-7.65,7.59-14.17,5.19a31.79,31.79,0,0,1-6.54-3.52c-3.42-2.26-3.84-6.95-.3-9,7.63-4.32,9.51-11.28,9.52-19,0-10.75-.29-21.51-1-32.23-.21-3.24-2-6.49-3.55-9.48-1-1.93-1.31-3.3.33-4.79,2.35-2.15,2.57-4.81,2.56-7.86,0-7.06-.16-14.21.89-21.16.61-4.06,2.86-8.2,5.35-11.59,5.08-6.94,12.93-8.18,20.29-3.73,6.58,4,10.63,10,13.09,17.18a3.49,3.49,0,0,1-.86,2.93,26.42,26.42,0,0,1-4.39,3.28c-2.58,1.71-4.49,1.24-5.23-1.94C659.28,346.43,657.06,344.67,652.66,344.56Z"/><path d="M622.26,355.23c-1.39,5.17-4.21,8.94-8.73,10.89-2.94,1.26-3.24,2.91-3,5.7,1.29,17.06,1.93,34.14-.87,51.13-1.35,8.22-3.57,16.17-8.81,22.92a26.85,26.85,0,0,1-3.49,3.74c-10.21,8.9-19.61,6.11-23.51-7.13a69.21,69.21,0,0,0,7.2-3.62c8.69-5.61,11.58-14.58,13.46-24,2.59-13.06,1.11-26.21.58-39.32,0-1.11-1.24-2.47-2.28-3.17a33.44,33.44,0,0,0-5.13-2.47c-.13-.5-.33-.84-.23-1,3.43-5.43,3-11.31,2.67-17.42a62.3,62.3,0,0,1,1.43-17.56c3.15-13.07,13-17.45,25.37-11.87a27.18,27.18,0,0,1,12.51,11.2c-2.93,2.63-5.83,5.22-8.89,8-2.57-2.66-6.21-4.57-10.68-3.35a3.77,3.77,0,0,0-2.3,2.68c.19,4.83.76,9.65,1.22,14.68Z"/><path d="M539.48,357c-.83,10.47-1.86,20.64-2.34,30.84a43.57,43.57,0,0,0,1.51,11.64,11,11,0,0,0,3.17,5.27c3.64,3.39,6.64,2.49,7.94-2.23,2.62-9.48,1.22-19.05.36-28.58-.36-3.92-2.29-8.51-.85-11.54s6.2-4.16,9.49-6.16a128.81,128.81,0,0,1,15.31-8.35,73.33,73.33,0,0,0-3.19,7.36c-1.19,3.82-2.64,7.71-2.88,11.65-.52,8.38-.28,16.81-.44,25.21-.06,3.48.74,6.2,3.8,8.49,6.87,5.16,6.72,8.65-1.38,14.51-2.69,2-7,2.43-10.49,2.4-8.19-.07-16.08.28-23.93,3.35-7.17,2.8-12.54-.64-13.94-8.14-2.84-15.21-2.81-30.57-2.07-45.95,0-.7.33-1.77.81-2,6.08-2.73,12.21-5.34,18.34-8C538.89,356.78,539.19,357,539.48,357Z"/><path d="M429.6,422.73c-.42,9.39,0,19.21,7,28.94,2.31-3.38,4.37-6.09,6.1-9,1.39-2.36,2.37-5,3.53-7.47s2.91-2.56,5.14-1.31c3.12,1.75,5.48,4.22,4.72,7.87-3.17,15.33-20.76,25.26-34.18,15.64-5.93-4.25-8.05-10.94-9.07-17.8-2.66-18,.67-34.57,12.21-49,6.38-8,17.16-9.16,25.43-3.17,9.43,6.82,9.34,20.23-.82,26.49C443.69,417.61,436.78,419.66,429.6,422.73Zm0-4,.84.35c2.76-2.59,5.32-5.43,8.33-7.68,3.5-2.62,4.09-5.49,2.59-9.42-1.35-3.53-3.61-4.68-6.49-2.28a10.66,10.66,0,0,0-3.45,5.43C430.49,409.58,430.2,414.18,429.63,418.72Z"/><path d="M403.71,362.75c0,16.38.08,32,0,47.55-.06,10-.74,20-.43,29.94.15,4.87,2,9.68,2.91,14.55.22,1.16.1,3.17-.57,3.57-8.6,5-17.32,9.74-26.71,14,1-1.74,1.89-3.51,2.95-5.19,3.12-4.93,4.19-10.25,4.27-16.09.16-13,.7-26,1.35-38.94.46-9.09,1-18.11-2.93-26.69-1.32-2.9-.78-4.62,2.25-6.62,3.73-2.47,6.55-6.32,9.83-9.51C398.9,367.13,401.3,365,403.71,362.75Z"/><path d="M501.82,263.7c.49-4.52.57-8.74,1.53-12.75.49-2.06,2.56-3.74,3.92-5.59,1.5,1.84,3.76,3.47,4.35,5.57,1.15,4.08,1.36,8.43,2,12.81a54.33,54.33,0,0,1,6.08-2.14c4-.93,7.1,1,7,4.61,0,1.72-.9,4.05-2.18,4.92-1,.64-3.2-.62-4.88-1-1.88-.47-4-1.71-5.55-1.15-1,.38-1.07,3.3-1.5,5.1a3.14,3.14,0,0,0,.15,1.16c1.23,7.07,1.23,7.07-5.4,10.57-.9-.66-1.81-1.39-2.79-2s-2-1.17-2.85-1.64a70.46,70.46,0,0,0,1.3-8.93c0-1.46-.72-3.7-1.79-4.22s-3.2.29-4.48,1.13c-3.85,2.49-7.15,1.67-8.34-2.37s2-7.66,6.34-6.7a29,29,0,0,1,3.73,1.22C499.62,262.69,500.76,263.24,501.82,263.7Z"/><path d="M477,206.64c.2-12.7.78-14.75,5.23-18.64,6.5,4.67,5.19,11.9,5.88,18.43,2.66-.71,5.13-1.72,7.67-1.94,4.2-.38,6.38,2.23,5.79,6.33-.52,3.58-3.31,4.84-6.27,2.81-.75-.52-1.32-1.53-2.11-1.71a8,8,0,0,0-4.41-.06c-.81.33-1.51,2.16-1.41,3.24.29,3.1,1,6.16,1.62,9.52l-6.52,4-5.93-3.75c.5-3.27,1.16-6.31,1.32-9.36.06-1.21-.73-3.17-1.64-3.55a5,5,0,0,0-4.25.61c-2.47,1.92-4.73,3-7.28.5a5.26,5.26,0,0,1-.79-7.17c1.81-2.71,4.52-2.77,7.36-1.6C473.05,205.08,474.86,205.78,477,206.64Z"/><path d="M568.19,283.84,561.46,288l-6-3.83a55.63,55.63,0,0,0,1.44-8c.07-1.64-.52-4.33-1.54-4.73-1.37-.54-3.42.7-5.2,1.08s-3.88,1.38-4.94.7a7.6,7.6,0,0,1-3.06-4.94c-.42-3.58,3-6,6.59-5.11a31.64,31.64,0,0,1,3.71,1.34c1.19.45,2.37.94,3.63,1.44.47-13.89.8-15,5.35-18.7C567.54,252,566.69,259,567,265.9a66.78,66.78,0,0,1,6.6-2.1c4-.82,7,1.12,7,4.77,0,1.59-.85,3.88-2.06,4.58s-3.21-.37-4.87-.74c-2-.44-4-1-6-1.44-.41,1.8-1.23,3.64-1.12,5.41C566.73,278.82,567.59,281.22,568.19,283.84Z"/><path d="M500.91,146.88c-.46-6.79-.73-13.24,4.69-18.6,6.85,4.76,5.57,12.11,6.17,18.76,2.61-.8,4.92-1.82,7.33-2.17,4.11-.59,6.66,2.06,6.21,6s-3.49,5.34-6.72,2.95a20.2,20.2,0,0,0-2.09-1.77c-2.68-1.47-5.65.11-5.47,3.15a90.14,90.14,0,0,0,1.55,9.53c-3.91,4.32-8.08,5.28-12.27.43a90.23,90.23,0,0,0,1.21-9.72c.07-3.32-2.52-4.53-5.39-2.81-.56.33-1,1.12-1.54,1.17-1.94.18-4.58.92-5.67,0a6.62,6.62,0,0,1-1.74-5.73c.48-1.61,3-3.64,4.61-3.63C494.64,144.44,497.49,145.87,500.91,146.88Z"/><path d="M526.66,206.32c-.57-7.15-1-13.72,4.63-19,6.78,4.94,5.52,12.09,5.83,18.85a62.88,62.88,0,0,1,7.17-2.28c4-.78,7.2,1.85,6.65,5.55-.22,1.5-1.18,3.54-2.37,4.08s-3.47-.05-4.56-1c-1.92-1.61-4-2.88-5.89-1.25-1.12,1-1.12,3.43-1.26,5.25a12.38,12.38,0,0,0,.64,3.85c.28,1.12.72,2.19,1.14,3.42l-7,4.37-5.95-3.9a76.15,76.15,0,0,0,1.53-9,3.56,3.56,0,0,0-6-3.13c-2.5,2-5.2,3-7.16.27a8.35,8.35,0,0,1-.81-6.74c1.16-3.17,4.29-2.94,7.09-1.94C522.26,204.4,524.15,205.28,526.66,206.32Z"/><path d="M459,164.92c-4.07,4.32-8.28,5.21-12.39.19a64.69,64.69,0,0,0,1.31-8.39c.05-1.42-.77-3.63-1.84-4.15s-3.26.18-4.48,1c-2.53,1.78-4.9,2.18-7-.1-2-2.13-2.47-5.19-.28-7.07,1.56-1.34,4.42-1.66,6.65-1.55,1.95.1,3.84,1.43,6.39,2.47-.48-7.08-.84-13.77,4.83-18.93,6.71,4.84,5.42,12.09,6,18.58,2.75-.7,5.34-1.71,8-1.95,3.78-.33,5.88,2.11,5.59,5.85-.3,4-3.31,5.41-6.59,3.15-.64-.45-1.12-1.29-1.81-1.47-1.29-.36-2.93-.88-3.95-.37a4.19,4.19,0,0,0-1.93,3.32A87.76,87.76,0,0,0,459,164.92Z"/><path d="M429,206.2c.22-3.95-.1-7.7.79-11.13.7-2.66,2.92-4.93,4.46-7.37,1.62,2.38,3.93,4.55,4.7,7.17,1,3.53.91,7.42,1.3,11.28a51.69,51.69,0,0,1,6.65-2.27c4.08-.82,7.54,2.09,6.84,5.81a6.1,6.1,0,0,1-2.61,3.94c-1,.51-2.8-.54-4.24-.93-2-.53-4-1.09-6-1.64-.42,1.91-1.22,3.82-1.16,5.71.07,2.3.87,4.58,1.43,7.2l-6.71,4.21-5.94-3.86A77.43,77.43,0,0,0,430,215a4.91,4.91,0,0,0-2-3.76c-.86-.51-2.88,0-3.85.78-2.43,1.9-4.79,3-7.33.6a5.38,5.38,0,0,1-.81-7.2c1.9-2.93,4.81-2.74,7.71-1.55C425.51,204.61,427.26,205.43,429,206.2Z"/><path d="M556,127.83c7.38,5.69,6.23,12.86,6.68,19.4,2.86-.73,5.46-1.79,8.12-2,4.18-.31,6.59,3,5.45,7-.88,3.06-3.42,4-6.11,2.22-1-.64-1.76-1.62-2.78-2.15-2.63-1.38-5.29.08-5.16,3,.15,3.23.86,6.43,1.39,10.15l-6.46,4-6-4a53,53,0,0,0,1.53-7.88c.08-1.62-.52-4.3-1.55-4.72-1.39-.56-3.47.61-5.26,1s-3.76,1.36-4.93.72a7,7,0,0,1-3-4.54c-.66-4.11,3-6.63,7.32-5.28,2.1.66,4.11,1.64,6.8,2.74,0-3.67-.47-7,.14-10S554.43,131.56,556,127.83Z"/><path d="M591.14,223.57l-6.92,4.35-6-3.89a58,58,0,0,0,1.37-8.22c0-1.58-.64-4-1.75-4.58s-3.41.32-4.79,1.19c-2.28,1.42-4.31,2-6.42,0a5.3,5.3,0,0,1-1-7.13c1.59-2.71,4.15-3,6.89-2,2.07.74,4.09,1.59,6.23,2.43.84-14.34,1-14.86,5.29-18.59,6.56,4.69,5.13,12,5.93,18.44,2.67-.69,5.26-1.72,7.91-2,3.69-.33,5.87,1.88,5.51,5.45-.16,1.51-1,3.57-2.21,4.16s-3-.42-4.59-.81c-2-.51-3.93-1.11-5.89-1.66a55.27,55.27,0,0,0-1.34,6,9.69,9.69,0,0,0,.66,3.46C590.24,221.31,590.66,222.27,591.14,223.57Z"/><path d="M253.41,616.34c.61-2.89,1.47-5.4,1.59-8,.07-1.62-.53-4.29-1.56-4.71-1.36-.57-3.43.71-5.22,1s-4.36,1.2-5.64.38-2.29-3.47-2.29-5.31c0-3.63,3.29-5.41,7.19-4.21,2.21.68,4.33,1.68,6.91,2.7-.32-7-1.06-13.64,4.69-18.91,6.79,4.83,5.33,12.07,5.95,18.64,2.82-.7,5.52-1.75,8.29-2,3.67-.3,5.9,2.4,5.5,6-.43,3.87-3.65,5.31-6.77,3a24.45,24.45,0,0,0-2.11-1.75c-2.86-1.6-5.64,0-5.4,3.41.21,3.09.93,6.16,1.45,9.35C260.17,620.4,260.17,620.4,253.41,616.34Z"/><path d="M373.54,650.54c.16-5.73-.6-11.44,4.28-15.74,5.4,4.06,4.64,10,5,15.58,2.41-.53,4.74-1.39,7.09-1.48a4.31,4.31,0,0,1,3.88,6.65c-1.51,2.67-3.37,2.07-5.56.53-1.21-.85-3.43-1.67-4.37-1.11s-1.5,2.83-1.46,4.33a32.35,32.35,0,0,0,1.28,6.13c-4.95,3.88-4.95,3.88-10.59.55a69.25,69.25,0,0,0,1.2-7.27c.07-1.14-.46-3-1.23-3.34a4.6,4.6,0,0,0-3.9.46c-2.06,1.5-4.22,2.48-5.82.23a7,7,0,0,1-.79-5.63c1-2.58,3.46-2.82,6-1.74C370.07,649.35,371.67,649.85,373.54,650.54Z"/><path d="M280.45,649.37c.07-5.7-.72-11.27,4.3-15.52,5.42,4,4.42,9.92,5,15.67a42,42,0,0,1,5.89-1.74c3.64-.56,5.91,1.76,5.44,5.25-.39,2.87-2.77,4.16-5.12,2.47-1.88-1.35-4-3.34-5.76-1.32-1.12,1.28-.64,4.12-.58,6.24a16.3,16.3,0,0,0,1,3.76c-4.77,4.24-4.77,4.24-10.67.7a45.06,45.06,0,0,0,1.19-6.88,5.31,5.31,0,0,0-1.57-4c-.73-.52-2.81.12-3.84.86-2.33,1.69-4.55,2-6.05-.52a6.09,6.09,0,0,1-.28-5c.56-1.12,2.77-2.06,4.18-2C275.73,647.47,277.81,648.54,280.45,649.37Z"/><path d="M326.56,258.09c-3.85-1.38-8.45-2.51-12.55-4.61-5-2.59-5.75-8-1.42-11.67a31.24,31.24,0,0,1,11.15-6.24c8.24-2.36,16.81,5.32,15.62,13.85-.32,2.33-2.41,4.93-4.43,6.35S330,257.21,326.56,258.09Z"/></svg>